<?xml version="1.0" encoding="UTF-8"?>
<!DOCTYPE svg PUBLIC "-//W3C//DTD SVG 1.1//EN" "http://www.w3.org/Graphics/SVG/1.1/DTD/svg11.dtd">
<!-- Creator: CorelDRAW 2018 (64 Bit) -->
<svg xmlns="http://www.w3.org/2000/svg" xml:space="preserve" width="19.558mm" height="11.3452mm" version="1.1" style="shape-rendering:geometricPrecision; text-rendering:geometricPrecision; image-rendering:optimizeQuality; fill-rule:evenodd; clip-rule:evenodd"
viewBox="0 0 1955.8 1134.52"
 xmlns:xlink="http://www.w3.org/1999/xlink">
 <defs>
  <style type="text/css">
   <![CDATA[
    .str0 {stroke:#2A2A2C;stroke-width:8.47;stroke-miterlimit:22.9256}
    .fil0 {fill:none}
    .fil3 {fill:#282829;fill-rule:nonzero}
    .fil2 {fill:black;fill-rule:nonzero}
    .fil21 {fill:url(#id0);fill-rule:nonzero}
    .fil1 {fill:url(#id1);fill-rule:nonzero}
    .fil25 {fill:url(#id2);fill-rule:nonzero}
    .fil23 {fill:url(#id3);fill-rule:nonzero}
    .fil4 {fill:url(#id4);fill-rule:nonzero}
    .fil13 {fill:url(#id5);fill-rule:nonzero}
    .fil24 {fill:url(#id6);fill-rule:nonzero}
    .fil19 {fill:url(#id7);fill-rule:nonzero}
    .fil18 {fill:url(#id8);fill-rule:nonzero}
    .fil26 {fill:url(#id9);fill-rule:nonzero}
    .fil8 {fill:url(#id10);fill-rule:nonzero}
    .fil9 {fill:url(#id11);fill-rule:nonzero}
    .fil6 {fill:url(#id12);fill-rule:nonzero}
    .fil11 {fill:url(#id13);fill-rule:nonzero}
    .fil17 {fill:url(#id14);fill-rule:nonzero}
    .fil22 {fill:url(#id15);fill-rule:nonzero}
    .fil12 {fill:url(#id16);fill-rule:nonzero}
    .fil5 {fill:url(#id17);fill-rule:nonzero}
    .fil10 {fill:url(#id18);fill-rule:nonzero}
    .fil7 {fill:url(#id19);fill-rule:nonzero}
    .fil14 {fill:url(#id20);fill-rule:nonzero}
    .fil15 {fill:url(#id21);fill-rule:nonzero}
    .fil16 {fill:url(#id22);fill-rule:nonzero}
    .fil20 {fill:url(#id23);fill-rule:nonzero}
   ]]>
  </style>
  <linearGradient id="id0" gradientUnits="userSpaceOnUse" x1="1162.17" y1="841.78" x2="1172.69" y2="841.78">
   <stop offset="0" style="stop-opacity:1; stop-color:#333233"/>
   <stop offset="0.0117647" style="stop-opacity:1; stop-color:#333233"/>
   <stop offset="0.4" style="stop-opacity:1; stop-color:#FEFEFE"/>
   <stop offset="0.831373" style="stop-opacity:1; stop-color:#333233"/>
   <stop offset="1" style="stop-opacity:1; stop-color:#333233"/>
  </linearGradient>
  <linearGradient id="id1" gradientUnits="userSpaceOnUse" x1="389.54" y1="567.25" x2="1566.24" y2="567.25">
   <stop offset="0" style="stop-opacity:1; stop-color:blue"/>
   <stop offset="0.192157" style="stop-opacity:1; stop-color:blue"/>
   <stop offset="0.388235" style="stop-opacity:1; stop-color:#FEFEFE"/>
   <stop offset="0.6" style="stop-opacity:1; stop-color:white"/>
   <stop offset="1" style="stop-opacity:1; stop-color:red"/>
   <stop offset="1" style="stop-opacity:1; stop-color:blue"/>
  </linearGradient>
  <linearGradient id="id2" gradientUnits="userSpaceOnUse" xlink:href="#id0" x1="1097.74" y1="801.01" x2="1109.99" y2="801.01">
  </linearGradient>
  <linearGradient id="id3" gradientUnits="userSpaceOnUse" xlink:href="#id0" x1="1154.18" y1="856.28" x2="1157.19" y2="856.28">
  </linearGradient>
  <linearGradient id="id4" gradientUnits="userSpaceOnUse" xlink:href="#id0" x1="928.42" y1="894.84" x2="1030.69" y2="894.84">
  </linearGradient>
  <linearGradient id="id5" gradientUnits="userSpaceOnUse" xlink:href="#id0" x1="822.69" y1="841.29" x2="832.55" y2="841.29">
  </linearGradient>
  <linearGradient id="id6" gradientUnits="userSpaceOnUse" xlink:href="#id0" x1="1095.41" y1="812.75" x2="1108.17" y2="812.75">
  </linearGradient>
  <linearGradient id="id7" gradientUnits="userSpaceOnUse" xlink:href="#id0" x1="1134.84" y1="852.14" x2="1137.83" y2="852.14">
  </linearGradient>
  <linearGradient id="id8" gradientUnits="userSpaceOnUse" xlink:href="#id0" x1="1141.91" y1="813.12" x2="1165.95" y2="813.12">
  </linearGradient>
  <linearGradient id="id9" gradientUnits="userSpaceOnUse" xlink:href="#id0" x1="1109.83" y1="794.79" x2="1115.8" y2="794.79">
  </linearGradient>
  <linearGradient id="id10" gradientUnits="userSpaceOnUse" xlink:href="#id0" x1="838.18" y1="829.03" x2="849.46" y2="829.03">
  </linearGradient>
  <linearGradient id="id11" gradientUnits="userSpaceOnUse" xlink:href="#id0" x1="807.07" y1="841.29" x2="818.35" y2="841.29">
  </linearGradient>
  <linearGradient id="id12" gradientUnits="userSpaceOnUse" xlink:href="#id0" x1="807.07" y1="829.03" x2="818.35" y2="829.03">
  </linearGradient>
  <linearGradient id="id13" gradientUnits="userSpaceOnUse" xlink:href="#id0" x1="807.07" y1="853.55" x2="818.35" y2="853.55">
  </linearGradient>
  <linearGradient id="id14" gradientUnits="userSpaceOnUse" xlink:href="#id0" x1="1090.87" y1="830.72" x2="1181.42" y2="830.72">
  </linearGradient>
  <linearGradient id="id15" gradientUnits="userSpaceOnUse" xlink:href="#id0" x1="1159.89" y1="852.14" x2="1170.83" y2="852.14">
  </linearGradient>
  <linearGradient id="id16" gradientUnits="userSpaceOnUse" xlink:href="#id0" x1="822.63" y1="829.03" x2="833.9" y2="829.03">
  </linearGradient>
  <linearGradient id="id17" gradientUnits="userSpaceOnUse" xlink:href="#id0" x1="778.2" y1="828.35" x2="862.77" y2="828.35">
  </linearGradient>
  <linearGradient id="id18" gradientUnits="userSpaceOnUse" xlink:href="#id0" x1="791.52" y1="841.29" x2="802.8" y2="841.29">
  </linearGradient>
  <linearGradient id="id19" gradientUnits="userSpaceOnUse" xlink:href="#id0" x1="791.52" y1="829.03" x2="802.8" y2="829.03">
  </linearGradient>
  <linearGradient id="id20" gradientUnits="userSpaceOnUse" xlink:href="#id0" x1="791.52" y1="853.55" x2="802.8" y2="853.55">
  </linearGradient>
  <linearGradient id="id21" gradientUnits="userSpaceOnUse" xlink:href="#id0" x1="824.2" y1="854.23" x2="860.85" y2="854.23">
  </linearGradient>
  <linearGradient id="id22" gradientUnits="userSpaceOnUse" xlink:href="#id0" x1="832.32" y1="855.27" x2="853.05" y2="855.27">
  </linearGradient>
  <linearGradient id="id23" gradientUnits="userSpaceOnUse" xlink:href="#id0" x1="1116.08" y1="825.99" x2="1138.62" y2="825.99">
  </linearGradient>
 </defs>
 <g id="Camada_x0020_1">
  <metadata id="CorelCorpID_0Corel-Layer"/>
  <g id="_2400627827776">
   <rect class="fil0" y="-0" width="1955.8" height="1134.53"/>
   <g>
    <path class="fil1" d="M1485.77 589.08c0.35,-6.96 1.19,-13.89 1.19,-21.2 0,-6.28 -0.67,-12.59 -1.02,-18.86 2.5,-12.27 8.78,-24.7 14.6,-36.31 5.8,-12.9 11.91,-24.51 13.27,-31.12 5.3,-21.72 -7.3,-34.79 -21.21,-43.26 -9.95,-6.1 -20.39,-10.1 -26.84,-14.55 -3.64,-12.43 -8.15,-24.69 -12.77,-36.81 -1.31,-12.88 0,-27.14 0.98,-40.08 1.82,-14.41 3.99,-27.48 3.31,-34.14 -6.27,-38.08 -46.35,-34.24 -65.27,-38.92 -7.42,-10.6 -15.22,-20.86 -23.49,-30.79 -12.42,-23.53 -13.45,-60.13 -20.22,-70.91 -17.07,-35.28 -54.85,-17.21 -73.88,-16.07 -10.6,-7.45 -21.37,-14.59 -32.49,-21.19 -18.54,-19.56 -32.78,-51.53 -42.06,-61.12 -15.24,-16.24 -33.46,-11.96 -47.88,-5.82 -10.43,4.63 -19.39,11.28 -26.98,14.6 -12.93,-3.81 -26.21,-7.29 -39.77,-10.14 -23.38,-11.91 -46.06,-38.08 -57.64,-43.03 -19.89,-9.14 -35.63,-1.04 -47.07,9.57 -8.44,8.48 -14.88,17.91 -20.86,23.38 -13.23,0.5 -26.68,1.31 -39.74,2.82 -26.34,-2.99 -57,-21.53 -69.76,-21.86 -21.88,-2.81 -34.27,9.44 -41.4,24.66 -5.3,10.44 -8.3,21.39 -12.28,28.35 -12.26,4.78 -24.18,10.08 -35.93,15.72 -26.33,4.97 -60.82,-0.68 -73.87,1.82 -21.88,3.99 -28.33,21.55 -30.83,36.94 -1.99,11.29 -1.33,22.69 -2.63,30.83 -10.31,8.78 -20.4,17.72 -29.86,27.15 -22.5,13.43 -57.98,17.55 -68.06,25.01 -33.3,20.23 -12.76,56.14 -9.79,75.23 -6.63,11.08 -12.91,22.53 -18.7,34.27 -8.1,9.8 -19.9,18.08 -30.33,25.7 -11.41,8.61 -22.35,15.89 -26.68,21.04 -15.21,16.36 -9.58,34.27 -1.82,48.05 5.98,10.09 12.78,18.52 16.59,25.65 -2.8,12.93 -4.63,26.17 -6.29,39.43 -10.76,24.69 -33.15,49.99 -38.92,62.15 -1.56,4.53 -2.35,8.74 -2.51,12.67l0 3.09c1.09,25.41 28.83,38.32 41.1,49.49 1.64,13.58 3.48,27.31 6.28,40.58 -1.32,26.17 -17.06,57.46 -16.25,69.89 -1.14,38.93 39.96,41.27 57.69,49.2 5.62,11.77 11.9,23.19 18.51,34.47 3.83,12.09 4.16,26.5 4.84,39.39 0.98,14.25 1.15,27.37 3.15,33.82 5.46,21.69 23.36,26.67 39.25,27.86 11.76,0.63 22.54,-0.52 30.45,0.11 9.46,9.29 19.39,18.08 29.36,26.67 15.23,21.88 23.32,56.03 30.96,66.79 13.11,17.4 30.82,17.75 46.06,13.76 11.44,-3.32 21.69,-8.62 29.46,-10.61 11.96,5.82 23.87,11.23 36.13,16.24 10.44,7.12 19.72,17.72 28,27.99 9.27,10.94 17.55,20.7 23.19,24.69 8.78,6.27 17.56,8.43 25.66,7.59 8.13,-1.15 15.78,-5.14 22.38,-9.77 9.59,-6.61 17.56,-14.76 24.18,-18.86 13.11,1.65 26.16,2.47 39.61,3.14 25.47,8.44 52.83,29.48 65.43,33.45 21.21,7.47 35.1,-5.46 44.7,-17.73 6.96,-9.11 11.96,-19.03 16.74,-25.36 13.41,-2.78 26.34,-6.25 39.12,-10.09 26.67,-0.51 59.26,11.12 72.21,10.61 21.71,-1.47 31.81,-16.23 36.77,-30.96 3.48,-11.61 4.63,-23.03 7.3,-30.65 10.94,-6.63 21.71,-13.41 32.14,-20.7 11.92,-5.15 26.16,-7.45 39.73,-8.79 14.25,-1.81 27.01,-3.47 33.16,-5.97 21.05,-7.46 25.34,-25.02 24.69,-41.44 -0.34,-11.74 -2.67,-22.67 -2.5,-30.61 8.26,-9.79 15.9,-19.89 23.53,-30.31 4.46,-3.83 9.42,-7.48 15.05,-10.61 6.33,-3.99 12.93,-7.46 19.39,-10.6 12.93,-6.45 25.02,-11.75 30.32,-15.9 28.49,-26 3.48,-57.51 -2.97,-75.87 4.96,-12.26 9.42,-24.69 13.41,-37.45 12.93,-22.87 42.56,-43.56 47.86,-55 19.9,-33.47 -15.21,-55 -27.18,-70.41zm-505.58 429.56c-248.46,0 -450.7,-202.11 -450.7,-450.76 0,-248.47 202.24,-450.75 450.7,-450.75 248.68,0 450.91,202.28 450.91,450.75 0,248.65 -202.23,450.76 -450.91,450.76z"/>
    <g>
     <path class="fil2" d="M1336.59 566.59c0.15,-2.91 -1.28,-5.86 -3.93,-7.56l-2.45 -1.57c-3.41,-2.19 -8.54,-0.76 -10.47,2.75l-1 1.82c-0.1,0.19 -0.1,0.36 -0.19,0.55 -17.09,5.67 -65.83,-6.34 -74.31,-9.65 -22.53,-8.8 -39.09,-25.41 -55.75,-42.39 -22.34,-22.75 -44.54,-46.26 -76.13,-55.36 -54.5,-15.72 -111.5,13.77 -129.31,65.59 -12.02,-51.75 -71.9,-76.08 -122.77,-65.78 -37.92,7.67 -70.3,30.07 -99.14,54.81 -35.94,30.82 -83.21,97.43 -136.29,65.9 -4.74,-2.82 -9.92,3.53 -6.37,7.56 0.06,0.51 0.17,0.99 0.24,1.49 -2.57,3.47 -2.72,8.93 1.91,11.27 0.23,0.12 0.47,0.24 0.69,0.35 17.66,56.68 99.98,79.54 152.12,85.54 73.41,8.45 146.01,-15.65 196.76,-68.56 2.49,-1.59 4.92,-3.13 7.27,-4.63 90.78,93.05 301.38,95.46 360.63,-33.36 1.58,-3.43 0.55,-6.63 -1.51,-8.77z"/>
     <path class="fil3" d="M983.38 141.47c-234.74,0 -425.74,191.01 -425.74,425.73 0,234.76 191,425.73 425.74,425.73 234.71,0 425.74,-190.97 425.74,-425.73 0,-234.72 -191.03,-425.73 -425.74,-425.73zm0 824.33c-219.67,0 -398.6,-178.92 -398.6,-398.6 0,-219.62 178.93,-398.36 398.6,-398.36 219.62,0 398.36,178.74 398.36,398.36 0,219.68 -178.74,398.6 -398.36,398.6z"/>
     <ellipse class="fil0 str0" cx="979.56" cy="894.85" rx="63.18" ry="59.01"/>
     <path class="fil4" d="M1016.32 909.68c-0.49,-1.7 -1.33,-3.31 -2.52,-4.67 -3.26,-3.6 -8.21,-4.55 -12.17,-2.49 -0.03,0.01 -0.06,0 -0.08,0 -4.48,2.14 -11.5,-2.37 -15.07,-3.6 -1.97,-0.67 -3.76,-2.14 -5.49,-3.44 2.73,0.18 5.59,1.74 6.92,2.48 0.26,0.14 0.49,0.01 0.33,-0.19 -1.21,-1.51 -2.22,-2.92 -2.82,-4.26l3.44 3.33 0.47 -0.54 -4.42 -4.29c-0.07,-0.37 -0.11,-0.74 -0.1,-1.09l4.98 4.83 0.48 -0.55 -5.33 -5.15c0.06,-0.24 0.14,-0.48 0.25,-0.69l5.51 5.32 0.48 -0.54 -5.62 -5.44c0.13,-0.2 0.27,-0.39 0.43,-0.58l5.65 5.47 0.47 -0.56 -5.64 -5.45c0.13,-0.17 0.28,-0.36 0.46,-0.56l5.66 5.46 0.46 -0.53 -5.65 -5.48c0.15,-0.15 0.29,-0.34 0.43,-0.5l5.65 5.46 0.47 -0.56 -5.64 -5.46c0.13,-0.15 0.26,-0.3 0.39,-0.46l5.64 5.48 0.47 -0.55 -5.65 -5.48c0.16,-0.17 0.31,-0.35 0.47,-0.53l5.65 5.45 0.47 -0.54 -5.64 -5.47c0.14,-0.17 0.29,-0.34 0.43,-0.52l5.65 5.48 0.46 -0.56 -5.65 -5.46c0.16,-0.18 0.3,-0.36 0.48,-0.55l5.64 5.48 0.46 -0.55 -5.64 -5.48c0.16,-0.17 0.32,-0.35 0.47,-0.54l5.65 5.46 0.46 -0.54 -5.64 -5.47c0.14,-0.17 0.3,-0.34 0.44,-0.51l5.64 5.46 0.47 -0.55 -5.65 -5.46c0.12,-0.14 0.23,-0.27 0.35,-0.4l5.64 5.46 0.46 -0.53 -5.64 -5.48c0.16,-0.18 0.32,-0.37 0.47,-0.55l5.65 5.47 0.47 -0.55 -5.64 -5.47c0.14,-0.17 0.29,-0.34 0.43,-0.51l5.65 5.47 0.46 -0.55 -5.65 -5.47c0.16,-0.17 0.32,-0.36 0.48,-0.54l5.64 5.46 0.46 -0.55 -5.63 -5.48c0.16,-0.18 0.31,-0.37 0.46,-0.55l5.65 5.48 0.47 -0.56 -5.64 -5.45c0.14,-0.17 0.29,-0.36 0.43,-0.53l5.64 5.48 0.48 -0.55 -5.64 -5.48c0.11,-0.14 0.24,-0.29 0.37,-0.43l5.65 5.46 0.46 -0.53 -5.65 -5.48c0.14,-0.17 0.29,-0.34 0.43,-0.51l5.65 5.46 0.47 -0.53 -5.64 -5.48c0.13,-0.15 0.26,-0.3 0.39,-0.46l5.64 5.48 0.48 -0.56 -5.65 -5.46c0.15,-0.18 0.3,-0.36 0.46,-0.55l5.65 5.46 0.47 -0.54 -5.64 -5.47c0.14,-0.17 0.29,-0.34 0.43,-0.51l5.64 5.46 0.48 -0.55 -5.64 -5.46c0.15,-0.18 0.31,-0.37 0.46,-0.55l5.64 5.48 0.47 -0.56 -5.64 -5.46c0.16,-0.2 0.32,-0.38 0.46,-0.55l5.65 5.46 0.47 -0.55 -5.64 -5.47c0.14,-0.17 0.3,-0.34 0.43,-0.51l5.64 5.47 0.48 -0.55 -5.64 -5.46c0.11,-0.14 0.22,-0.27 0.34,-0.4l5.65 5.46 0.46 -0.54 -5.65 -5.47c0.17,-0.2 0.33,-0.39 0.47,-0.55l5.65 5.47 0.46 -0.55 -5.64 -5.48c0.24,-0.27 0.39,-0.44 0.39,-0.44 0.01,-0.02 0.03,-0.03 0.04,-0.06l5.64 5.47 0.48 -0.55 -5.65 -5.47c0.16,-0.19 0.32,-0.37 0.48,-0.56l5.64 5.48 0.47 -0.54 -5.65 -5.47c0.17,-0.2 0.33,-0.39 0.47,-0.56l5.65 5.48 0.47 -0.55 -5.64 -5.48c0.17,-0.19 0.3,-0.35 0.43,-0.51l5.65 5.48 0.47 -0.55 -5.64 -5.46c0.13,-0.17 0.26,-0.31 0.39,-0.43l5.61 5.44 0.48 -0.55 -5.53 -5.35c0.21,-0.14 0.44,-0.26 0.68,-0.35l5.31 5.17 0.47 -0.56 -4.98 -4.83c0.35,-0.04 0.68,-0.04 1.04,0l4.42 4.28 0.46 -0.55 -3.44 -3.33c1.28,0.49 2.65,1.4 4.14,2.52 0.21,0.15 0.41,-0.03 0.25,-0.29 -3.04,-4.97 -9.5,-6.48 -12.02,-3.53 -0.55,0.63 -1.7,1.97 -3.19,3.71 0,0 -9.21,10.8 -15.92,18.65 -0.28,0.32 -0.56,0.66 -0.82,0.97 -2.77,3.23 -5,5.84 -5.77,6.74l-6.52 7.65c-0.04,-0.02 -0.09,-0.03 -0.11,-0.05 -0.19,-0.05 -0.54,-0.19 -1,-0.4l-19.95 -45.1 10.93 39.41c0,0 0.1,0.37 0.25,1.01 -13.47,-7.53 -34.56,-21.95 -34.56,-21.95 0,0 35.82,33.31 37.1,34.44 0.06,0.32 0.13,0.64 0.2,0.98l-24.79 29.02 0.78 0.78 24.72 -27.32c2.2,6.61 6.68,13.55 1.98,17.07 0,0.02 0,0.05 0,0.07 -4.22,3.16 -5.14,9.83 -1.97,15.14 3.24,5.44 9.55,7.39 14.05,4.34 2.78,-1.88 4.15,-5.68 5.25,-9.33 -0.94,-2.93 -1.69,-3.99 -2.96,-6.07 -0.8,-1.38 -1.82,-2.52 -2.95,-3.42 -2.45,-2.49 -9.6,-21 -8.88,-22.72 8.74,-0.14 19.9,7.09 21.16,13.82 0.02,0 0.03,-0.03 0.05,-0.03 0.22,2.61 1.21,5.06 2.95,7.01 3.51,3.91 9.04,4.74 13.12,1.98 0.53,-0.36 1.04,-0.79 1.5,-1.24 1.67,-1.71 2.63,-3.93 2.89,-6.37 0.95,-0.37 2.34,-0.72 3.63,-0.42 4.82,1.35 6.12,-2.88 6.22,-4.2 0.1,-1.25 -6.87,2.46 -10.25,0.05zm-47.02 -13.71c-0.62,-1.05 -0.33,-2.43 0.65,-3.09 0.98,-0.66 2.28,-0.35 2.9,0.69 0.61,1.05 0.32,2.43 -0.65,3.09 -0.97,0.66 -2.28,0.35 -2.9,-0.69zm8.56 27.01c0.24,0.03 0.49,0.06 0.73,0.07 2.07,0.36 4.15,1.78 5.51,4.05 2.27,3.81 1.69,8.53 -1.28,10.54 -2.96,2.01 -7.22,0.55 -9.49,-3.25 -2.26,-3.8 -1.7,-8.53 1.27,-10.54 0.98,-0.67 2.12,-0.92 3.26,-0.87zm33.69 -4.92c-0.31,0.3 -0.63,0.59 -0.99,0.82 -2.75,1.87 -6.53,1.26 -8.94,-1.46 -1.36,-1.5 -2.12,-3.45 -2.14,-5.47 -0.01,-1.98 0.7,-3.79 1.99,-5.11 0.3,-0.3 0.64,-0.58 0.98,-0.83 2.77,-1.86 6.52,-1.24 8.94,1.46 1.37,1.5 2.12,3.45 2.14,5.48 0.01,1.98 -0.7,3.8 -1.98,5.11z"/>
     <ellipse class="fil0 str0" cx="820.49" cy="831.08" rx="63.18" ry="59.01"/>
     <path class="fil5" d="M852.89 798.39l-6.48 0 0 -2.73c0,-3.01 -2.32,-5.44 -5.18,-5.44 -2.87,0 -5.19,2.43 -5.19,5.44l0 2.73 -10.37 0 0 -2.73c0,-3.01 -2.32,-5.44 -5.18,-5.44 -2.86,0 -5.19,2.43 -5.19,5.44l0 2.73 -10.36 0 0 -2.73c0,-3.01 -2.33,-5.44 -5.19,-5.44 -2.86,0 -5.18,2.43 -5.18,5.44l0 2.73 -6.48 0c-3.58,0 -6.49,3.05 -6.49,6.81l0 54.48c0,3.76 2.91,6.81 6.49,6.81l36.29 0c0.71,0 1.29,-0.61 1.29,-1.36 0,-0.75 -0.58,-1.36 -1.29,-1.36l-36.29 0c-2.15,-0.01 -3.89,-1.84 -3.89,-4.09l0 -42.22 72.58 0 0 23.15c0,0.75 0.58,1.36 1.3,1.36 0.71,0 1.29,-0.61 1.29,-1.36l0 -35.41c0,-3.76 -2.9,-6.81 -6.48,-6.81zm-14.25 -2.73c0,-1.5 1.16,-2.72 2.59,-2.72 1.43,0 2.59,1.22 2.59,2.72l0 8.18c0,1.5 -1.16,2.72 -2.59,2.72 -1.43,0 -2.59,-1.22 -2.59,-2.72l0 -8.18zm-20.74 0c0,-1.5 1.16,-2.72 2.59,-2.72 1.43,0 2.59,1.22 2.59,2.72l0 8.18c0,1.5 -1.16,2.72 -2.59,2.72 -1.43,0 -2.59,-1.22 -2.59,-2.72l0 -8.18zm-20.74 0c0,-1.5 1.16,-2.72 2.59,-2.72 1.43,0 2.59,1.22 2.59,2.72l0 8.18c0,1.5 -1.16,2.72 -2.59,2.72 -1.43,0 -2.59,-1.22 -2.59,-2.72l0 -8.18zm59.62 19.07l-72.58 0 0 -9.53c0,-2.26 1.74,-4.08 3.89,-4.09l6.48 0 0 2.73c0,3 2.32,5.44 5.18,5.44 2.86,0 5.19,-2.44 5.19,-5.44l0 -2.73 10.36 0 0 2.73c0,3 2.33,5.44 5.19,5.44 2.86,0 5.18,-2.44 5.18,-5.44l0 -2.73 10.37 0 0 2.73c0,3 2.32,5.44 5.19,5.44 2.86,0 5.18,-2.44 5.18,-5.44l0 -2.73 6.48 0c2.15,0.01 3.89,1.83 3.89,4.09l0 9.53z"/>
     <path class="fil6" d="M817.9 826.99c0,-1.5 -1.16,-2.72 -2.6,-2.72l-5.18 0c-1.43,0 -2.59,1.22 -2.59,2.72l0 4.09c0,1.5 1.16,2.72 2.59,2.72l5.18 0c1.44,0 2.6,-1.22 2.6,-2.72l0 -4.09zm-7.78 4.09l0 -4.09 5.18 0 0 4.09 -5.18 0z"/>
     <path class="fil7" d="M802.34 826.99c0,-1.5 -1.16,-2.72 -2.59,-2.72l-5.18 0c-1.44,0 -2.6,1.22 -2.6,2.72l0 4.09c0,1.5 1.16,2.72 2.6,2.72l5.18 0c1.43,0 2.59,-1.22 2.59,-2.72l0 -4.09zm-7.77 4.09l0 -4.09 5.18 0 0 4.09 -5.18 0z"/>
     <path class="fil8" d="M846.41 833.8c1.43,0 2.6,-1.22 2.6,-2.72l0 -4.09c0,-1.5 -1.17,-2.72 -2.6,-2.72l-5.18 0c-1.43,0 -2.59,1.22 -2.59,2.72l0 4.09c0,1.5 1.16,2.72 2.59,2.72l5.18 0zm-5.18 -6.81l5.18 0 0 4.09 -5.18 0 0 -4.09z"/>
     <path class="fil9" d="M817.9 839.25c0,-1.51 -1.16,-2.73 -2.6,-2.73l-5.18 0c-1.43,0 -2.59,1.22 -2.59,2.73l0 4.09c0,1.5 1.16,2.72 2.59,2.72l5.18 0c1.44,0 2.6,-1.22 2.6,-2.72l0 -4.09zm-7.78 4.09l0 -4.09 5.18 0 0 4.09 -5.18 0z"/>
     <path class="fil10" d="M802.34 839.25c0,-1.51 -1.16,-2.73 -2.59,-2.73l-5.18 0c-1.44,0 -2.6,1.22 -2.6,2.73l0 4.09c0,1.5 1.16,2.72 2.6,2.72l5.18 0c1.43,0 2.59,-1.22 2.59,-2.72l0 -4.09zm-7.77 4.09l0 -4.09 5.18 0 0 4.09 -5.18 0z"/>
     <path class="fil11" d="M815.3 848.78l-5.18 0c-1.43,0 -2.59,1.22 -2.59,2.73l0 4.08c0,1.51 1.16,2.73 2.59,2.73l5.18 0c1.44,0 2.6,-1.22 2.6,-2.73l0 -4.08c0,-1.51 -1.16,-2.73 -2.6,-2.73zm-5.18 6.81l0 -4.08 5.18 0 0 4.08 -5.18 0z"/>
     <path class="fil12" d="M825.67 833.8l5.19 0c1.43,0 2.59,-1.22 2.59,-2.72l0 -4.09c0,-1.5 -1.16,-2.72 -2.59,-2.72l-5.19 0c-1.43,0 -2.59,1.22 -2.59,2.72l0 4.09c0,1.5 1.16,2.72 2.59,2.72zm0 -6.81l5.19 0 0 4.09 -5.19 0 0 -4.09z"/>
     <path class="fil13" d="M823.08 843.34c0,1.5 1.16,2.72 2.59,2.72 0.72,0 1.3,-0.61 1.3,-1.36 0,-0.75 -0.58,-1.36 -1.3,-1.36l0 -4.09 5.19 0c0.71,0 1.3,-0.61 1.3,-1.36 0,-0.75 -0.59,-1.37 -1.3,-1.37l-5.19 0c-1.43,0 -2.59,1.22 -2.59,2.73l0 4.09z"/>
     <path class="fil14" d="M799.75 848.78l-5.18 0c-1.44,0 -2.6,1.22 -2.6,2.73l0 4.08c0,1.51 1.16,2.73 2.6,2.73l5.18 0c1.43,0 2.59,-1.22 2.59,-2.73l0 -4.08c0,-1.51 -1.16,-2.73 -2.59,-2.73zm-5.18 6.81l0 -4.08 5.18 0 0 4.08 -5.18 0z"/>
     <path class="fil15" d="M842.52 836.52c-6.81,0 -12.95,4.32 -15.56,10.94 -2.61,6.61 -1.17,14.23 3.65,19.29 4.82,5.07 12.07,6.58 18.36,3.84 6.3,-2.74 10.4,-9.2 10.4,-16.36 -0.01,-9.77 -7.54,-17.69 -16.85,-17.71zm0 32.69c-5.76,0 -10.96,-3.65 -13.17,-9.24 -2.2,-5.6 -0.98,-12.05 3.09,-16.33 4.08,-4.29 10.21,-5.57 15.54,-3.25 5.33,2.32 8.8,7.78 8.8,13.84 -0.01,8.27 -6.38,14.97 -14.26,14.98z"/>
     <path class="fil16" d="M850.01 848.52l-10.08 10.6 -4.58 -4.82c-0.51,-0.52 -1.32,-0.51 -1.82,0.02 -0.5,0.52 -0.5,1.37 -0.01,1.91l5.5 5.77c0.5,0.54 1.32,0.54 1.83,0l11 -11.55c0.49,-0.54 0.48,-1.39 -0.02,-1.91 -0.5,-0.53 -1.31,-0.53 -1.82,-0.02z"/>
     <path class="fil0 str0" d="M1136.15 772.32c34.43,0 62.34,26.07 62.34,58.23 0,32.16 -27.91,58.23 -62.34,58.23 -34.43,0 -62.34,-26.07 -62.34,-58.23 0,-32.16 27.91,-58.23 62.34,-58.23z"/>
     <path class="fil17" d="M1174.06 818.79l-4.01 -0.58c-2.27,-0.32 -4.37,1.25 -4.69,3.52 -0.15,1.09 0.13,2.19 0.79,3.07l2.43 3.24 -4.43 3.32 -2.42 -3.24c-1.38,-1.83 -3.98,-2.2 -5.81,-0.83 -0.88,0.66 -1.46,1.64 -1.61,2.73l-0.56 4.01 -5.47 -0.78 0.57 -4c0.32,-2.27 -1.25,-4.37 -3.52,-4.7 -1.09,-0.15 -2.19,0.13 -3.07,0.79l-3.24 2.43 -3.32 -4.42 3.24 -2.43c1.83,-1.37 2.2,-3.97 0.83,-5.8 -0.66,-0.88 -1.64,-1.47 -2.73,-1.62l-4.01 -0.57 0.78 -5.47 4.01 0.57c2.27,0.32 4.37,-1.25 4.69,-3.52 0.16,-1.09 -0.13,-2.19 -0.79,-3.07l-2.43 -3.24 4.42 -3.32 2.43 3.24c1.37,1.83 3.97,2.2 5.8,0.83 0.88,-0.66 1.46,-1.64 1.62,-2.73l0.57 -4.01 5.47 0.78 -0.57 4.01c-0.32,2.27 1.25,4.36 3.52,4.69 1.09,0.15 2.19,-0.13 3.07,-0.79l3.24 -2.43 3.31 4.42 -3.23 2.43c-1.83,1.38 -2.21,3.98 -0.83,5.81 0.66,0.88 1.64,1.46 2.73,1.61l4 0.58 -0.78 5.47zm3.73 -6.53l0 -0.24c-0.06,-0.62 -0.54,-1.15 -1.18,-1.24 0,0 0,0 0,0l-0.01 -0.01 -5.37 -0.76c-0.76,-0.11 -1.28,-0.81 -1.17,-1.57 0.05,-0.36 0.24,-0.69 0.53,-0.91l4.35 -3.25c0.61,-0.46 0.73,-1.33 0.27,-1.94l-4.97 -6.63c-0.46,-0.61 -1.32,-0.74 -1.93,-0.28l0 0 -4.35 3.26c-0.6,0.46 -1.47,0.34 -1.93,-0.27 -0.23,-0.29 -0.32,-0.66 -0.27,-1.03l0.77 -5.38c0.11,-0.75 -0.42,-1.45 -1.17,-1.56 0,0 0,0 0,0l-8.21 -1.17c-0.75,-0.11 -1.45,0.41 -1.56,1.17 0,0 0,0 0,0l-0.77 5.38c-0.11,0.75 -0.81,1.28 -1.56,1.17 -0.37,-0.05 -0.69,-0.25 -0.91,-0.54l-3.26 -4.34c-0.46,-0.61 -1.32,-0.74 -1.93,-0.28l0 0 -4.16 3.12c-1.87,-0.2 -3.77,-0.2 -5.65,0 -12.3,1.4 -21.95,11.21 -23.15,23.54 -0.03,0.39 -0.05,0.78 -0.07,1.16l-0.41 0c-0.66,0.01 -1.22,0.47 -1.35,1.11l-0.96 4.54 -3.82 -2.64c-0.55,-0.38 -1.29,-0.31 -1.76,0.16l-4.15 4.15c-0.47,0.47 -0.54,1.21 -0.16,1.76l2.63 3.82 -4.55 0.95c-0.63,0.14 -1.08,0.7 -1.08,1.35l0 5.53c0,0.65 0.45,1.22 1.09,1.35l4.55 0.96 -2.63 3.82c-0.38,0.55 -0.31,1.29 0.16,1.76l4.15 4.14c0.47,0.47 1.21,0.54 1.76,0.16l3.82 -2.63 0.95 4.54c0.13,0.64 0.7,1.11 1.35,1.11l5.53 0c0.65,0 1.22,-0.46 1.35,-1.1l0.96 -4.54 3.81 2.62c0.55,0.38 1.29,0.31 1.77,-0.16l2.14 -2.15 0 3.94c0.01,1.96 1.06,3.78 2.76,4.76l0 7.67c0,3.06 2.48,5.53 5.53,5.53l5.53 0c3.05,0 5.53,-2.47 5.53,-5.53l0 -7.67c1.7,-0.98 2.75,-2.8 2.76,-4.76l0 -5.47c0.04,-2.3 1.24,-4.43 3.2,-5.64 1.14,-0.74 2.23,-1.58 3.25,-2.49l-1.84 -2.06c-0.92,0.82 -1.89,1.56 -2.92,2.23 -2.74,1.72 -4.42,4.72 -4.45,7.96l0 5.47c0,1.53 -1.24,2.76 -2.77,2.76l-11.05 0c-1.53,0 -2.77,-1.23 -2.77,-2.76l0 -5.58c-0.03,-3.18 -1.68,-6.12 -4.38,-7.8 -10.95,-6.89 -14.25,-21.34 -7.37,-32.29 4.27,-6.8 11.72,-10.93 19.75,-10.96 -0.02,0.05 -0.04,0.1 -0.06,0.15 -0.05,0.36 0.05,0.73 0.27,1.02l3.26 4.34c0.34,0.45 0.37,1.06 0.08,1.54 -0.28,0.48 -0.83,0.74 -1.38,0.66l-5.38 -0.77c-0.75,-0.1 -1.45,0.42 -1.56,1.18 0,0 0,0 0,0l-1.18 8.2c-0.1,0.76 0.42,1.46 1.18,1.57 0,0 0,0 0,0l5.37 0.77c0.76,0.1 1.28,0.8 1.18,1.56 -0.06,0.36 -0.25,0.69 -0.54,0.91l-4.35 3.26c-0.61,0.45 -0.73,1.32 -0.27,1.93l4.97 6.63c0.46,0.61 1.33,0.74 1.94,0.28l0 0 4.34 -3.26c0.61,-0.45 1.48,-0.33 1.93,0.28 0.22,0.29 0.32,0.66 0.27,1.02l-0.77 5.38c-0.11,0.75 0.42,1.45 1.17,1.56 0,0 0,0 0,0l8.21 1.18c0.06,0 0.13,0.01 0.19,0.01 0.69,0 1.28,-0.51 1.37,-1.19l0.77 -5.37c0.11,-0.76 0.81,-1.28 1.56,-1.18 0.37,0.06 0.69,0.25 0.91,0.54l3.26 4.35c0.46,0.61 1.33,0.73 1.94,0.27l0 0 6.63 -4.97c0.61,-0.46 0.73,-1.33 0.28,-1.94l-3.26 -4.34c-0.34,-0.44 -0.38,-1.05 -0.08,-1.53 0.27,-0.49 0.82,-0.76 1.38,-0.67l5.37 0.77c0.76,0.11 1.46,-0.42 1.57,-1.17 0,0 0,0 0,0l1.17 -8.21c0,-0.03 0,-0.05 0.01,-0.08zm-52.84 34.43l-2.96 2.96 -2.87 -1.98c-1.26,-0.87 -2.98,-0.55 -3.84,0.71 -0.21,0.3 -0.36,0.64 -0.43,1l-0.73 3.45 -3.28 0 -0.73 -3.45c-0.31,-1.49 -1.78,-2.45 -3.27,-2.13 -0.36,0.07 -0.7,0.22 -1,0.43l-2.87 1.97 -2.52 -2.51 1.98 -2.87c0.87,-1.26 0.55,-2.98 -0.7,-3.85 -0.31,-0.2 -0.65,-0.35 -1,-0.43l-3.45 -0.72 0 -3.28 3.45 -0.73c1.49,-0.32 2.44,-1.78 2.13,-3.28 -0.08,-0.35 -0.22,-0.69 -0.43,-0.99l-1.98 -2.87 2.52 -2.51 2.87 1.97c1.26,0.87 2.98,0.55 3.85,-0.71 0.2,-0.3 0.35,-0.64 0.42,-0.99l0.25 -1.15c0.22,1.59 0.58,3.16 1.09,4.68 -4.54,0.54 -7.79,4.67 -7.25,9.22 0.54,4.54 4.67,7.79 9.22,7.25 2.73,-0.33 5.13,-1.99 6.39,-4.45 0.75,0.62 1.54,1.2 2.36,1.72 1.31,0.83 2.29,2.08 2.78,3.54zm16.91 13.05l0 2.76 -11.05 0 0 -2.76 11.05 0zm-2.76 9.67l-5.53 0c-1.52,0 -2.76,-1.24 -2.76,-2.77l0 -1.38 11.05 0 0 1.38c0,1.53 -1.23,2.77 -2.76,2.77zm-26.57 -37.31c1.27,2.74 3.01,5.24 5.13,7.39 -1.03,2.87 -4.19,4.35 -7.06,3.32 -2.87,-1.03 -4.36,-4.19 -3.32,-7.06 0.79,-2.19 2.87,-3.65 5.2,-3.65 0.02,0 0.03,0 0.05,0z"/>
     <path class="fil18" d="M1153.93 821.41c-4.57,0 -8.29,-3.71 -8.29,-8.29 0,-4.58 3.72,-8.29 8.29,-8.29 4.58,0 8.29,3.71 8.29,8.29 0,4.58 -3.71,8.29 -8.29,8.29zm0 -19.34c-6.1,0 -11.05,4.95 -11.05,11.05 0,6.11 4.95,11.05 11.05,11.05 6.11,0 11.06,-4.94 11.06,-11.05 -0.01,-6.1 -4.95,-11.05 -11.06,-11.05z"/>
     <polygon class="fil19" points="1134.95,854.21 1137.72,854.21 1137.72,850.06 1134.95,850.06 "/>
     <path class="fil20" d="M1130.29 836.49c-8.53,-3.33 -12.74,-12.95 -9.41,-21.48 1.29,-3.3 3.61,-6.1 6.61,-7.99l-1.48 -2.34c-9.03,5.69 -11.75,17.64 -6.05,26.68 2.2,3.5 5.47,6.2 9.33,7.7 3.41,1.31 5.66,4.59 5.66,8.24l2.77 0c0,-4.79 -2.95,-9.09 -7.43,-10.81z"/>
     <polygon class="fil21" points="1162.59,843.15 1172.26,843.15 1172.26,840.39 1162.59,840.39 "/>
     <polygon class="fil22" points="1160.32,849.74 1162.09,847.62 1170.38,854.53 1168.61,856.65 "/>
     <polygon class="fil23" points="1154.3,861.12 1157.06,861.12 1157.06,851.45 1154.3,851.45 "/>
     <polygon class="fil24" points="1095.93,812.8 1106.98,810.03 1107.65,812.71 1096.6,815.48 "/>
     <polygon class="fil25" points="1098.22,798.68 1099.83,796.43 1109.5,803.34 1107.9,805.59 "/>
     <polygon class="fil26" points="1110.06,789.61 1112.74,788.92 1115.57,799.98 1112.89,800.66 "/>
    </g>
   </g>
  </g>
 </g>
</svg>
