<?xml version="1.0" encoding="UTF-8"?>
<!DOCTYPE svg PUBLIC "-//W3C//DTD SVG 1.1//EN" "http://www.w3.org/Graphics/SVG/1.1/DTD/svg11.dtd">
<!-- Creator: CorelDRAW 2018 (64 Bit) -->
<svg xmlns="http://www.w3.org/2000/svg" xml:space="preserve" width="49.5298mm" height="49.5298mm" version="1.1" style="shape-rendering:geometricPrecision; text-rendering:geometricPrecision; image-rendering:optimizeQuality; fill-rule:evenodd; clip-rule:evenodd"
viewBox="0 0 4952.98 4952.98"
 xmlns:xlink="http://www.w3.org/1999/xlink">
 <defs>
  <style type="text/css">
   <![CDATA[
    .str0 {stroke:#2A2A2C;stroke-width:8.47;stroke-miterlimit:22.9256}
    .fil3 {fill:none}
    .fil2 {fill:#282829;fill-rule:nonzero}
    .fil1 {fill:black;fill-rule:nonzero}
    .fil18 {fill:url(#id0);fill-rule:nonzero}
    .fil11 {fill:url(#id1);fill-rule:nonzero}
    .fil9 {fill:url(#id2);fill-rule:nonzero}
    .fil6 {fill:url(#id3);fill-rule:nonzero}
    .fil26 {fill:url(#id4);fill-rule:nonzero}
    .fil14 {fill:url(#id5);fill-rule:nonzero}
    .fil10 {fill:url(#id6);fill-rule:nonzero}
    .fil7 {fill:url(#id7);fill-rule:nonzero}
    .fil22 {fill:url(#id8);fill-rule:nonzero}
    .fil24 {fill:url(#id9);fill-rule:nonzero}
    .fil8 {fill:url(#id10);fill-rule:nonzero}
    .fil21 {fill:url(#id11);fill-rule:nonzero}
    .fil17 {fill:url(#id12);fill-rule:nonzero}
    .fil23 {fill:url(#id13);fill-rule:nonzero}
    .fil15 {fill:url(#id14);fill-rule:nonzero}
    .fil13 {fill:url(#id15);fill-rule:nonzero}
    .fil25 {fill:url(#id16);fill-rule:nonzero}
    .fil16 {fill:url(#id17);fill-rule:nonzero}
    .fil19 {fill:url(#id18);fill-rule:nonzero}
    .fil5 {fill:url(#id19);fill-rule:nonzero}
    .fil20 {fill:url(#id20);fill-rule:nonzero}
    .fil4 {fill:url(#id21);fill-rule:nonzero}
    .fil12 {fill:url(#id22);fill-rule:nonzero}
    .fil0 {fill:url(#id23);fill-rule:nonzero}
   ]]>
  </style>
  <linearGradient id="id0" gradientUnits="userSpaceOnUse" x1="3227.18" y1="3601.82" x2="3337.22" y2="3601.82">
   <stop offset="0" style="stop-opacity:1; stop-color:#333233"/>
   <stop offset="0.0117647" style="stop-opacity:1; stop-color:#333233"/>
   <stop offset="0.4" style="stop-opacity:1; stop-color:#FEFEFE"/>
   <stop offset="0.831373" style="stop-opacity:1; stop-color:#333233"/>
   <stop offset="1" style="stop-opacity:1; stop-color:#333233"/>
  </linearGradient>
  <linearGradient id="id1" gradientUnits="userSpaceOnUse" xlink:href="#id0" x1="1694.59" y1="3786.89" x2="1746.2" y2="3786.89">
  </linearGradient>
  <linearGradient id="id2" gradientUnits="userSpaceOnUse" xlink:href="#id0" x1="1694.59" y1="3730.78" x2="1746.2" y2="3730.78">
  </linearGradient>
  <linearGradient id="id3" gradientUnits="userSpaceOnUse" xlink:href="#id0" x1="1694.59" y1="3674.66" x2="1746.2" y2="3674.66">
  </linearGradient>
  <linearGradient id="id4" gradientUnits="userSpaceOnUse" xlink:href="#id0" x1="3080.31" y1="3517.94" x2="3107.7" y2="3517.94">
  </linearGradient>
  <linearGradient id="id5" gradientUnits="userSpaceOnUse" xlink:href="#id0" x1="1623.39" y1="3786.89" x2="1675.02" y2="3786.89">
  </linearGradient>
  <linearGradient id="id6" gradientUnits="userSpaceOnUse" xlink:href="#id0" x1="1623.39" y1="3730.78" x2="1675.02" y2="3730.78">
  </linearGradient>
  <linearGradient id="id7" gradientUnits="userSpaceOnUse" xlink:href="#id0" x1="1623.39" y1="3674.66" x2="1675.02" y2="3674.66">
  </linearGradient>
  <linearGradient id="id8" gradientUnits="userSpaceOnUse" xlink:href="#id0" x1="3309.44" y1="3780.42" x2="3359.52" y2="3780.42">
  </linearGradient>
  <linearGradient id="id9" gradientUnits="userSpaceOnUse" xlink:href="#id0" x1="3014.36" y1="3600.16" x2="3072.71" y2="3600.16">
  </linearGradient>
  <linearGradient id="id10" gradientUnits="userSpaceOnUse" xlink:href="#id0" x1="1836.98" y1="3674.66" x2="1888.6" y2="3674.66">
  </linearGradient>
  <linearGradient id="id11" gradientUnits="userSpaceOnUse" xlink:href="#id0" x1="3319.88" y1="3732.98" x2="3368.03" y2="3732.98">
  </linearGradient>
  <linearGradient id="id12" gradientUnits="userSpaceOnUse" xlink:href="#id0" x1="2993.59" y1="3682.37" x2="3408.04" y2="3682.37">
  </linearGradient>
  <linearGradient id="id13" gradientUnits="userSpaceOnUse" xlink:href="#id0" x1="3283.32" y1="3799.38" x2="3297.08" y2="3799.38">
  </linearGradient>
  <linearGradient id="id14" gradientUnits="userSpaceOnUse" xlink:href="#id0" x1="1772.98" y1="3790.01" x2="1940.72" y2="3790.01">
  </linearGradient>
  <linearGradient id="id15" gradientUnits="userSpaceOnUse" xlink:href="#id0" x1="1766.06" y1="3730.78" x2="1811.21" y2="3730.78">
  </linearGradient>
  <linearGradient id="id16" gradientUnits="userSpaceOnUse" xlink:href="#id0" x1="3024.97" y1="3546.41" x2="3081.09" y2="3546.41">
  </linearGradient>
  <linearGradient id="id17" gradientUnits="userSpaceOnUse" xlink:href="#id0" x1="1810.14" y1="3794.75" x2="1905.01" y2="3794.75">
  </linearGradient>
  <linearGradient id="id18" gradientUnits="userSpaceOnUse" xlink:href="#id0" x1="3194.78" y1="3780.42" x2="3208.52" y2="3780.42">
  </linearGradient>
  <linearGradient id="id19" gradientUnits="userSpaceOnUse" xlink:href="#id0" x1="1562.45" y1="3671.54" x2="1949.54" y2="3671.54">
  </linearGradient>
  <linearGradient id="id20" gradientUnits="userSpaceOnUse" xlink:href="#id0" x1="3108.89" y1="3660.73" x2="3212.13" y2="3660.73">
  </linearGradient>
  <linearGradient id="id21" gradientUnits="userSpaceOnUse" xlink:href="#id0" x1="2249.97" y1="3975.9" x2="2718.14" y2="3975.9">
  </linearGradient>
  <linearGradient id="id22" gradientUnits="userSpaceOnUse" xlink:href="#id0" x1="1765.8" y1="3674.66" x2="1817.4" y2="3674.66">
  </linearGradient>
  <linearGradient id="id23" gradientUnits="userSpaceOnUse" x1="-216.51" y1="2476.47" x2="5169.38" y2="2476.47">
   <stop offset="0" style="stop-opacity:1; stop-color:blue"/>
   <stop offset="0.192157" style="stop-opacity:1; stop-color:blue"/>
   <stop offset="0.388235" style="stop-opacity:1; stop-color:#FEFEFE"/>
   <stop offset="0.6" style="stop-opacity:1; stop-color:white"/>
   <stop offset="1" style="stop-opacity:1; stop-color:red"/>
   <stop offset="1" style="stop-opacity:1; stop-color:blue"/>
  </linearGradient>
 </defs>
 <g id="Camada_x0020_1">
  <metadata id="CorelCorpID_0Corel-Layer"/>
  <g id="_2400618007856">
   <path class="fil0" d="M4801.07 2576.39c1.59,-31.86 5.45,-63.61 5.45,-97.06 0,-28.72 -3.09,-57.61 -4.68,-86.33 11.44,-56.12 40.16,-113.01 66.79,-166.17 26.58,-59.03 54.53,-112.18 60.75,-142.45 24.26,-99.42 -33.4,-159.23 -97.06,-198.02 -45.56,-27.89 -93.32,-46.22 -122.86,-66.57 -16.67,-56.9 -37.31,-113.02 -58.44,-168.48 -5.99,-58.98 0,-124.24 4.46,-183.44 8.36,-65.97 18.27,-125.78 15.19,-156.26 -28.72,-174.31 -212.17,-156.76 -298.77,-178.16 -33.95,-48.53 -69.66,-95.47 -107.51,-140.91 -56.84,-107.74 -61.57,-275.22 -92.55,-324.57 -78.13,-161.49 -251.06,-78.8 -338.16,-73.57 -48.53,-34.11 -97.83,-66.79 -148.72,-97 -84.85,-89.52 -150.05,-235.82 -192.52,-279.73 -69.72,-74.34 -153.13,-54.75 -219.15,-26.63 -47.71,21.18 -88.75,51.61 -123.47,66.79 -59.21,-17.44 -119.95,-33.34 -182.01,-46.38 -107.02,-54.52 -210.85,-174.31 -263.83,-196.98 -91.06,-41.81 -163.09,-4.73 -215.47,43.8 -38.62,38.85 -68.11,81.98 -95.46,107.02 -60.58,2.31 -122.15,6 -181.9,12.93 -120.55,-13.7 -260.91,-98.54 -319.29,-100.09 -100.14,-12.82 -156.87,43.25 -189.49,112.91 -24.27,47.76 -38.02,97.88 -56.24,129.74 -56.12,21.9 -110.64,46.16 -164.45,71.97 -120.5,22.72 -278.36,-3.14 -338.11,8.31 -100.14,18.26 -129.63,98.65 -141.08,169.08 -9.13,51.66 -6.1,103.88 -12.05,141.13 -47.21,40.16 -93.37,81.1 -136.67,124.24 -103,61.51 -265.37,80.33 -311.53,114.5 -152.41,92.6 -58.38,256.95 -44.79,344.32 -30.37,50.73 -59.09,103.11 -85.61,156.87 -37.09,44.84 -91.06,82.75 -138.82,117.63 -52.22,39.4 -102.29,72.74 -122.09,96.29 -69.66,74.88 -43.86,156.87 -8.37,219.92 27.4,46.22 58.49,84.79 75.93,117.42 -12.82,59.2 -21.18,119.78 -28.77,180.47 -49.25,113.01 -151.75,228.83 -178.16,284.46 -7.1,20.74 -10.73,40 -11.45,57.99l0 14.14c4.95,116.32 131.94,175.41 188.12,226.53 7.48,62.17 15.9,125 28.72,185.75 -6.05,119.78 -78.07,263 -74.39,319.89 -5.23,178.16 182.89,188.89 264.05,225.21 25.75,53.86 54.47,106.13 84.73,157.74 17.55,55.35 19.04,121.33 22.18,180.31 4.45,65.2 5.22,125.28 14.41,154.77 24.98,99.32 106.91,122.1 179.65,127.54 53.81,2.86 103.16,-2.36 139.37,0.5 43.3,42.53 88.75,82.75 134.36,122.09 69.71,100.14 106.74,256.46 141.74,305.7 59.97,79.62 141.07,81.21 210.78,62.95 52.38,-15.19 99.32,-39.45 134.86,-48.53 54.75,26.63 109.27,51.39 165.39,74.33 47.76,32.57 90.24,81.1 128.15,128.09 42.42,50.07 80.33,94.75 106.14,113.01 40.16,28.73 80.38,38.57 117.47,34.72 37.19,-5.22 72.19,-23.49 102.39,-44.67 43.91,-30.27 80.39,-67.57 110.71,-86.33 59.97,7.54 119.72,11.28 181.29,14.36 116.59,38.62 241.82,134.91 299.48,153.12 97.06,34.17 160.67,-25.03 204.57,-81.15 31.86,-41.71 54.75,-87.1 76.65,-116.1 61.35,-12.71 120.55,-28.61 179.04,-46.16 122.09,-2.37 271.25,50.89 330.51,48.53 99.37,-6.72 145.59,-74.28 168.31,-141.68 15.9,-53.15 21.19,-105.43 33.4,-140.31 50.07,-30.32 99.37,-61.35 147.13,-94.75 54.53,-23.55 119.73,-34.11 181.85,-40.22 65.2,-8.3 123.63,-15.9 151.74,-27.34 96.35,-34.12 115.99,-114.5 113.02,-189.66 -1.54,-53.76 -12.22,-103.77 -11.45,-140.09 37.8,-44.84 72.8,-91.06 107.74,-138.76 20.41,-17.5 43.08,-34.22 68.88,-48.53 28.94,-18.27 59.15,-34.17 88.75,-48.53 59.15,-29.54 114.5,-53.81 138.77,-72.79 130.4,-119.01 15.9,-263.22 -13.59,-347.24 22.67,-56.12 43.08,-113.02 61.35,-171.45 59.2,-104.65 194.83,-199.34 219.09,-251.72 91.06,-153.18 -69.66,-251.73 -124.4,-322.26zm-2314.1 1966.13c-1137.24,0 -2062.92,-925.07 -2062.92,-2063.19 0,-1137.24 925.68,-2063.09 2062.92,-2063.09 1138.23,0 2063.86,925.85 2063.86,2063.09 0,1138.12 -925.63,2063.19 -2063.86,2063.19z"/>
   <path class="fil1" d="M4118.25 2473.43c0.69,-13.3 -5.85,-26.8 -18.02,-34.6l-11.19 -7.17c-15.61,-10.02 -39.11,-3.51 -47.94,12.57l-4.55 8.32c-0.47,0.88 -0.47,1.67 -0.87,2.52 -78.22,25.98 -301.34,-29 -340.15,-44.17 -103.12,-40.26 -178.93,-116.29 -255.17,-193.99 -102.23,-104.12 -203.86,-211.73 -348.43,-253.41 -249.45,-71.95 -510.38,63.04 -591.9,300.2 -55.02,-236.87 -329.09,-348.19 -561.91,-301.08 -173.56,35.13 -321.76,137.65 -453.78,250.9 -164.48,141.07 -380.85,445.92 -623.8,301.59 -21.7,-12.89 -45.43,16.18 -29.16,34.64 0.28,2.34 0.8,4.52 1.11,6.83 -11.76,15.86 -12.45,40.85 8.71,51.57 1.08,0.53 2.15,1.07 3.2,1.61 80.8,259.4 457.61,364.06 696.24,391.52 336.01,38.66 668.29,-71.63 900.58,-313.81 11.44,-7.28 22.53,-14.32 33.31,-21.18 415.5,425.88 1379.41,436.9 1650.63,-152.73 7.21,-15.66 2.5,-30.33 -6.91,-40.13z"/>
   <path class="fil2" d="M2501.55 527.61c-1074.4,0 -1948.64,874.29 -1948.64,1948.64 0,1074.51 874.24,1948.58 1948.64,1948.58 1074.3,0 1948.65,-874.07 1948.65,-1948.58 0,-1074.35 -874.35,-1948.64 -1948.65,-1948.64zm0 3773.04c-1005.46,0 -1824.4,-818.94 -1824.4,-1824.4 0,-1005.25 818.94,-1823.36 1824.4,-1823.36 1005.25,0 1823.36,818.11 1823.36,1823.36 0,1005.46 -818.11,1824.4 -1823.36,1824.4z"/>
   <ellipse class="fil3 str0" cx="2484.06" cy="3975.91" rx="289.18" ry="270.1"/>
   <path class="fil4" d="M2652.32 4043.79c-2.23,-7.8 -6.06,-15.16 -11.53,-21.35 -14.9,-16.5 -37.58,-20.85 -55.7,-11.43 -0.13,0.05 -0.26,0 -0.38,0 -20.51,9.82 -52.62,-10.82 -68.95,-16.45 -9.02,-3.06 -17.21,-9.8 -25.12,-15.77 12.47,0.82 25.58,7.99 31.64,11.36 1.2,0.64 2.24,0.07 1.51,-0.85 -5.53,-6.94 -10.14,-13.4 -12.9,-19.5l15.74 15.22 2.18 -2.46 -20.24 -19.64c-0.33,-1.69 -0.52,-3.38 -0.45,-5l22.8 22.12 2.17 -2.53 -24.38 -23.58c0.25,-1.06 0.65,-2.18 1.12,-3.16l25.24 24.35 2.18 -2.45 -25.71 -24.92c0.59,-0.92 1.25,-1.76 1.98,-2.66l25.84 25.05 2.17 -2.54 -25.84 -24.98c0.59,-0.77 1.32,-1.61 2.11,-2.53l25.9 25 2.11 -2.46 -25.83 -25.06c0.66,-0.69 1.31,-1.54 1.97,-2.32l25.84 24.99 2.17 -2.52 -25.83 -25c0.59,-0.69 1.18,-1.4 1.77,-2.1l25.85 25.06 2.11 -2.53 -25.85 -25.07c0.73,-0.77 1.45,-1.61 2.18,-2.44l25.83 24.98 2.17 -2.51 -25.82 -25c0.66,-0.77 1.31,-1.55 1.97,-2.39l25.84 25.07 2.11 -2.53 -25.84 -25c0.72,-0.85 1.38,-1.68 2.18,-2.53l25.83 25.06 2.1 -2.52 -25.82 -25.07c0.72,-0.77 1.45,-1.61 2.17,-2.45l25.83 25 2.11 -2.47 -25.83 -25.06c0.66,-0.77 1.39,-1.54 2.05,-2.31l25.82 24.98 2.11 -2.52 -25.83 -25c0.52,-0.63 1.07,-1.25 1.58,-1.81l25.84 24.98 2.11 -2.44 -25.84 -25.08c0.73,-0.84 1.46,-1.68 2.18,-2.53l25.84 25.07 2.17 -2.53 -25.83 -25.06c0.65,-0.77 1.31,-1.54 1.97,-2.31l25.84 25.05 2.11 -2.52 -25.84 -25.07c0.73,-0.77 1.45,-1.62 2.18,-2.44l25.83 24.98 2.11 -2.52 -25.76 -25.06c0.72,-0.85 1.38,-1.7 2.11,-2.54l25.83 25.07 2.17 -2.53 -25.83 -24.99c0.66,-0.77 1.32,-1.62 1.97,-2.39l25.84 25.06 2.18 -2.52 -25.84 -25.07c0.52,-0.63 1.12,-1.33 1.71,-1.96l25.84 24.98 2.11 -2.45 -25.84 -25.07c0.65,-0.77 1.31,-1.54 1.98,-2.31l25.84 24.99 2.17 -2.46 -25.84 -25.05c0.6,-0.7 1.2,-1.4 1.78,-2.1l25.84 25.05 2.17 -2.54 -25.83 -24.98c0.66,-0.84 1.38,-1.69 2.11,-2.53l25.83 25 2.17 -2.46 -25.82 -25.05c0.66,-0.78 1.31,-1.55 1.97,-2.33l25.83 24.99 2.18 -2.52 -25.83 -24.99c0.73,-0.86 1.45,-1.7 2.11,-2.54l25.83 25.07 2.17 -2.53 -25.83 -24.99c0.73,-0.91 1.45,-1.75 2.11,-2.53l25.83 24.99 2.18 -2.53 -25.83 -25c0.65,-0.82 1.38,-1.59 1.97,-2.37l25.84 25.05 2.17 -2.51 -25.83 -25c0.52,-0.63 1.05,-1.25 1.57,-1.83l25.85 25 2.11 -2.47 -25.85 -25.05c0.79,-0.91 1.52,-1.76 2.18,-2.53l25.84 25.07 2.11 -2.53 -25.85 -25.08c1.13,-1.26 1.79,-2.03 1.79,-2.03 0.07,-0.07 0.14,-0.14 0.2,-0.27l25.84 25.05 2.17 -2.53 -25.84 -25.05c0.72,-0.85 1.45,-1.69 2.17,-2.53l25.85 25.07 2.11 -2.47 -25.85 -25.05c0.79,-0.92 1.52,-1.76 2.17,-2.54l25.85 25.05 2.17 -2.51 -25.84 -25.07c0.8,-0.89 1.39,-1.62 1.98,-2.32l25.85 25.08 2.16 -2.54 -25.84 -24.99c0.59,-0.77 1.2,-1.39 1.79,-1.97l25.7 24.93 2.18 -2.54 -25.31 -24.49c0.99,-0.63 2.04,-1.19 3.1,-1.62l24.32 23.67 2.17 -2.53 -22.81 -22.1c1.59,-0.22 3.1,-0.22 4.76,0l20.23 19.56 2.1 -2.51 -15.75 -15.25c5.87,2.25 12.13,6.4 18.98,11.53 0.93,0.7 1.85,-0.14 1.13,-1.33 -13.92,-22.75 -43.5,-29.64 -55.04,-16.16 -2.5,2.88 -7.78,9.05 -14.56,16.98 0,0 -42.18,49.43 -72.91,85.37 -1.24,1.48 -2.56,3.02 -3.74,4.44 -12.66,14.81 -22.88,26.74 -26.38,30.88l-29.84 34.98c-0.21,-0.08 -0.41,-0.15 -0.55,-0.22 -0.84,-0.22 -2.43,-0.85 -4.53,-1.83l-91.35 -206.4 50.03 180.35c0,0 0.45,1.69 1.18,4.64 -61.69,-34.47 -158.19,-100.47 -158.19,-100.47 0,0 163.92,152.48 169.78,157.63 0.27,1.46 0.61,2.94 0.93,4.49l-113.49 132.82 3.61 3.57 113.12 -125.04c10.07,30.27 30.57,62.01 9.09,78.15 0,0.07 0,0.22 0,0.29 -19.32,14.45 -23.53,45 -9.04,69.28 14.83,24.93 43.7,33.85 64.33,19.88 12.72,-8.58 18.99,-25.99 23.99,-42.69 -4.28,-13.4 -7.71,-18.25 -13.51,-27.8 -3.69,-6.32 -8.37,-11.52 -13.51,-15.66 -11.21,-11.37 -43.96,-96.11 -40.66,-103.96 40,-0.65 91.09,32.42 96.87,63.24 0.07,0 0.14,-0.14 0.21,-0.14 0.99,11.93 5.54,23.16 13.51,32.08 16.08,17.9 41.39,21.69 60.04,9.06 2.44,-1.62 4.76,-3.58 6.86,-5.68 7.65,-7.8 12.07,-17.98 13.25,-29.14 4.36,-1.69 10.68,-3.31 16.6,-1.9 22.09,6.18 28.01,-13.19 28.49,-19.23 0.45,-5.76 -31.46,11.23 -46.94,0.21zm-215.19 -62.75c-2.83,-4.79 -1.51,-11.11 2.96,-14.13 4.48,-3.03 10.42,-1.6 13.26,3.16 2.82,4.78 1.5,11.09 -2.97,14.11 -4.42,3.02 -10.41,1.62 -13.25,-3.14zm39.15 123.61c1.11,0.15 2.25,0.28 3.36,0.36 9.5,1.61 18.98,8.14 25.24,18.53 10.35,17.42 7.71,39.03 -5.86,48.23 -13.58,9.21 -33.08,2.52 -43.45,-14.88 -10.34,-17.41 -7.77,-39.03 5.81,-48.23 4.49,-3.1 9.69,-4.21 14.9,-4.01zm154.23 -22.52c-1.45,1.4 -2.9,2.73 -4.55,3.77 -12.59,8.57 -29.87,5.77 -40.93,-6.66 -6.2,-6.87 -9.69,-15.8 -9.76,-25.06 -0.06,-9.05 3.18,-17.34 9.1,-23.38 1.38,-1.4 2.9,-2.66 4.49,-3.79 12.65,-8.51 29.84,-5.68 40.92,6.66 6.27,6.89 9.69,15.8 9.76,25.08 0.07,9.05 -3.17,17.41 -9.03,23.38z"/>
   <ellipse class="fil3 str0" cx="1756" cy="3684.03" rx="289.18" ry="270.1"/>
   <path class="fil5" d="M1904.31 3534.4l-29.66 0 0 -12.47c0,-13.77 -10.62,-24.94 -23.73,-24.94 -13.1,0 -23.73,11.17 -23.73,24.94l0 12.47 -47.46 0 0 -12.47c0,-13.77 -10.63,-24.94 -23.73,-24.94 -13.11,0 -23.73,11.17 -23.73,24.94l0 12.47 -47.46 0 0 -12.47c0,-13.77 -10.63,-24.94 -23.74,-24.94 -13.1,0 -23.73,11.17 -23.73,24.94l0 12.47 -29.66 0c-16.38,0 -29.66,13.95 -29.66,31.17l0 249.37c0,17.21 13.28,31.17 29.66,31.17l166.12 0c3.27,0 5.93,-2.79 5.93,-6.24 0,-3.44 -2.66,-6.23 -5.93,-6.23l-166.12 0c-9.82,-0.03 -17.77,-8.38 -17.8,-18.7l0 -193.26 332.23 0 0 105.98c0,3.44 2.66,6.23 5.94,6.23 3.27,0 5.93,-2.79 5.93,-6.23l0 -162.09c0,-17.22 -13.28,-31.17 -29.67,-31.17zm-65.26 -12.47c0,-6.89 5.32,-12.47 11.87,-12.47 6.55,0 11.87,5.58 11.87,12.47l0 37.41c0,6.88 -5.32,12.46 -11.87,12.46 -6.55,0 -11.87,-5.58 -11.87,-12.46l0 -37.41zm-94.92 0c0,-6.89 5.31,-12.47 11.87,-12.47 6.55,0 11.86,5.58 11.86,12.47l0 37.41c0,6.88 -5.31,12.46 -11.86,12.46 -6.56,0 -11.87,-5.58 -11.87,-12.46l0 -37.41zm-94.92 0c0,-6.89 5.31,-12.47 11.86,-12.47 6.56,0 11.87,5.58 11.87,12.47l0 37.41c0,6.88 -5.31,12.46 -11.87,12.46 -6.55,0 -11.86,-5.58 -11.86,-12.46l0 -37.41zm272.9 87.28l-332.23 0 0 -43.64c0.03,-10.32 7.98,-18.67 17.8,-18.7l29.66 0 0 12.47c0,13.77 10.63,24.93 23.73,24.93 13.11,0 23.74,-11.16 23.74,-24.93l0 -12.47 47.46 0 0 12.47c0,13.77 10.62,24.93 23.73,24.93 13.1,0 23.73,-11.16 23.73,-24.93l0 -12.47 47.46 0 0 12.47c0,13.77 10.63,24.93 23.73,24.93 13.11,0 23.73,-11.16 23.73,-24.93l0 -12.47 29.66 0c9.82,0.03 17.77,8.38 17.8,18.7l0 43.64z"/>
   <path class="fil6" d="M1744.13 3665.32c0,-6.89 -5.31,-12.47 -11.86,-12.47l-23.73 0c-6.56,0 -11.87,5.58 -11.87,12.47l0 18.7c0,6.89 5.31,12.47 11.87,12.47l23.73 0c6.55,0 11.86,-5.58 11.86,-12.47l0 -18.7zm-35.59 18.7l0 -18.7 23.73 0 0 18.7 -23.73 0z"/>
   <path class="fil7" d="M1672.94 3665.32c0,-6.89 -5.31,-12.47 -11.87,-12.47l-23.73 0c-6.55,0 -11.86,5.58 -11.86,12.47l0 18.7c0,6.89 5.31,12.47 11.86,12.47l23.73 0c6.56,0 11.87,-5.58 11.87,-12.47l0 -18.7zm-35.6 18.7l0 -18.7 23.73 0 0 18.7 -23.73 0z"/>
   <path class="fil8" d="M1874.65 3696.49c6.56,0 11.87,-5.58 11.87,-12.47l0 -18.7c0,-6.89 -5.31,-12.47 -11.87,-12.47l-23.73 0c-6.55,0 -11.87,5.58 -11.87,12.47l0 18.7c0,6.89 5.32,12.47 11.87,12.47l23.73 0zm-23.73 -31.17l23.73 0 0 18.7 -23.73 0 0 -18.7z"/>
   <path class="fil9" d="M1744.13 3721.42c0,-6.88 -5.31,-12.46 -11.86,-12.46l-23.73 0c-6.56,0 -11.87,5.58 -11.87,12.46l0 18.71c0,6.89 5.31,12.47 11.87,12.47l23.73 0c6.55,0 11.86,-5.58 11.86,-12.47l0 -18.71zm-35.59 18.71l0 -18.71 23.73 0 0 18.71 -23.73 0z"/>
   <path class="fil10" d="M1672.94 3721.42c0,-6.88 -5.31,-12.46 -11.87,-12.46l-23.73 0c-6.55,0 -11.86,5.58 -11.86,12.46l0 18.71c0,6.89 5.31,12.47 11.86,12.47l23.73 0c6.56,0 11.87,-5.58 11.87,-12.47l0 -18.71zm-35.6 18.71l0 -18.71 23.73 0 0 18.71 -23.73 0z"/>
   <path class="fil11" d="M1732.27 3765.06l-23.73 0c-6.56,0 -11.87,5.58 -11.87,12.47l0 18.71c0,6.88 5.31,12.46 11.87,12.46l23.73 0c6.55,0 11.86,-5.58 11.86,-12.46l0 -18.71c0,-6.89 -5.31,-12.47 -11.86,-12.47zm-23.73 31.18l0 -18.71 23.73 0 0 18.71 -23.73 0z"/>
   <path class="fil12" d="M1779.73 3696.49l23.73 0c6.55,0 11.86,-5.58 11.86,-12.47l0 -18.7c0,-6.89 -5.31,-12.47 -11.86,-12.47l-23.73 0c-6.56,0 -11.87,5.58 -11.87,12.47l0 18.7c0,6.89 5.31,12.47 11.87,12.47zm0 -31.17l23.73 0 0 18.7 -23.73 0 0 -18.7z"/>
   <path class="fil13" d="M1767.86 3740.13c0,6.89 5.31,12.47 11.87,12.47 3.27,0 5.93,-2.8 5.93,-6.24 0,-3.44 -2.66,-6.23 -5.93,-6.23l0 -18.71 23.73 0c3.27,0 5.93,-2.79 5.93,-6.23 0,-3.44 -2.66,-6.23 -5.93,-6.23l-23.73 0c-6.56,0 -11.87,5.58 -11.87,12.46l0 18.71z"/>
   <path class="fil14" d="M1661.07 3765.06l-23.73 0c-6.55,0 -11.86,5.58 -11.86,12.47l0 18.71c0,6.88 5.31,12.46 11.86,12.46l23.73 0c6.56,0 11.87,-5.58 11.87,-12.46l0 -18.71c0,-6.89 -5.31,-12.47 -11.87,-12.47zm-23.73 31.18l0 -18.71 23.73 0 0 18.71 -23.73 0z"/>
   <path class="fil15" d="M1856.85 3708.96c-31.19,0 -59.31,19.74 -71.25,50.03 -11.94,30.28 -5.34,65.14 16.72,88.32 22.05,23.18 55.23,30.11 84.05,17.57 28.82,-12.55 47.61,-42.1 47.61,-74.88 -0.05,-44.74 -34.55,-80.99 -77.13,-81.04zm0 149.62c-26.39,0 -50.19,-16.71 -60.29,-42.34 -10.1,-25.62 -4.51,-55.12 14.15,-74.73 18.66,-19.61 46.73,-25.48 71.12,-14.87 24.38,10.62 40.28,35.62 40.28,63.36 -0.04,37.86 -29.23,68.53 -65.26,68.58z"/>
   <path class="fil16" d="M1891.13 3763.87l-46.14 48.49 -20.98 -22.05c-2.32,-2.36 -6.02,-2.33 -8.31,0.08 -2.29,2.4 -2.32,6.29 -0.07,8.74l25.16 26.45c2.32,2.43 6.07,2.43 8.39,0l50.34 -52.9c2.25,-2.44 2.22,-6.33 -0.07,-8.74 -2.29,-2.4 -5.99,-2.44 -8.32,-0.07z"/>
   <path class="fil3 str0" d="M3200.81 3415.07c157.59,0 285.34,119.33 285.34,266.52 0,147.2 -127.75,266.53 -285.34,266.53 -157.58,0 -285.33,-119.33 -285.33,-266.53 0,-147.19 127.75,-266.52 285.33,-266.52z"/>
   <path class="fil17" d="M3374.31 3627.76l-18.34 -2.62c-10.37,-1.48 -19.98,5.73 -21.46,16.1 -0.71,4.99 0.58,10.05 3.6,14.07l11.11 14.82 -20.23 15.18 -11.12 -14.81c-6.29,-8.39 -18.18,-10.09 -26.57,-3.8 -4.02,3.02 -6.68,7.51 -7.4,12.49l-2.56 18.37 -25.04 -3.58 2.62 -18.34c1.49,-10.38 -5.72,-19.99 -16.09,-21.47 -4.98,-0.72 -10.05,0.58 -14.08,3.6l-14.81 11.11 -15.18 -20.24 14.81 -11.11c8.38,-6.29 10.08,-18.18 3.8,-26.57 -3.02,-4.02 -7.52,-6.68 -12.5,-7.4l-18.34 -2.62 3.58 -25.03 18.34 2.61c10.38,1.49 19.99,-5.72 21.47,-16.09 0.72,-4.98 -0.58,-10.05 -3.6,-14.07l-11.15 -14.83 20.24 -15.18 11.12 14.81c6.28,8.39 18.18,10.09 26.56,3.8 4.03,-3.02 6.69,-7.51 7.4,-12.49l2.62 -18.34 25.04 3.57 -2.62 18.34c-1.48,10.38 5.73,19.99 16.1,21.47 4.98,0.71 10.04,-0.59 14.07,-3.61l14.81 -11.11 15.18 20.24 -14.81 11.12c-8.39,6.28 -10.09,18.18 -3.8,26.56 3.02,4.03 7.51,6.69 12.49,7.4l18.34 2.62 -3.6 25.03zm17.07 -29.86l0 -1.09c-0.25,-2.86 -2.44,-5.28 -5.4,-5.71 0,0 0,0 0,0l-0.02 -0.01 -24.6 -3.51c-3.46,-0.49 -5.86,-3.69 -5.37,-7.15 0.24,-1.66 1.13,-3.16 2.47,-4.17l19.88 -14.91c2.8,-2.1 3.36,-6.06 1.27,-8.86l-22.77 -30.36c-2.1,-2.79 -6.06,-3.36 -8.85,-1.26l0 0 -19.88 14.91c-2.78,2.11 -6.75,1.57 -8.86,-1.21 -1.03,-1.35 -1.47,-3.06 -1.22,-4.74l3.51 -24.6c0.5,-3.46 -1.9,-6.66 -5.36,-7.16 0,0 -0.01,0 -0.01,0l-37.54 -5.36c-3.46,-0.5 -6.66,1.9 -7.16,5.36 0,0 0,0 0,0l-3.52 24.6c-0.49,3.46 -3.69,5.86 -7.15,5.37 -1.66,-0.23 -3.16,-1.12 -4.17,-2.46l-14.9 -19.89c-2.1,-2.79 -6.06,-3.36 -8.86,-1.26l0 0 -19 14.26c-8.6,-0.92 -17.27,-0.92 -25.87,0 -56.31,6.43 -100.47,51.34 -105.96,107.75 -0.17,1.79 -0.23,3.57 -0.32,5.34l-1.9 0c-3,0.01 -5.58,2.12 -6.18,5.06l-4.37 20.79 -17.51 -12.08c-2.51,-1.73 -5.9,-1.42 -8.06,0.74l-18.98 18.97c-2.15,2.16 -2.46,5.55 -0.73,8.06l12.02 17.47 -20.79 4.37c-2.91,0.64 -4.98,3.22 -4.97,6.19l0 25.3c0,2.99 2.09,5.58 5.02,6.19l20.79 4.37 -12.02 17.48c-1.73,2.51 -1.42,5.9 0.74,8.06l18.97 18.97c2.16,2.16 5.55,2.47 8.06,0.73l17.48 -12.04 4.37 20.78c0.6,2.94 3.18,5.06 6.18,5.06l25.3 0c2.99,0 5.58,-2.09 6.19,-5.02l4.37 -20.79 17.48 12.02c2.51,1.73 5.9,1.42 8.06,-0.73l9.82 -9.86 0 18.03c0.03,8.99 4.85,17.3 12.65,21.78l0 35.14c0,13.97 11.32,25.3 25.29,25.3l25.3 0c13.97,0 25.3,-11.33 25.3,-25.3l0 -35.14c7.8,-4.48 12.62,-12.79 12.65,-21.78l0 -25.04c0.17,-10.53 5.68,-20.25 14.63,-25.81 5.25,-3.41 10.23,-7.21 14.89,-11.39l-8.44 -9.42c-4.17,3.74 -8.63,7.14 -13.33,10.19 -12.55,7.88 -20.24,21.61 -20.4,36.43l0 25.04c0,6.98 -5.66,12.65 -12.65,12.65l-50.59 0c-6.99,0 -12.65,-5.67 -12.65,-12.65l0 -25.56c-0.15,-14.55 -7.72,-28.01 -20.06,-35.7 -50.13,-31.49 -65.24,-97.66 -33.74,-147.79 19.55,-31.1 53.65,-50.03 90.38,-50.16 -0.09,0.22 -0.17,0.45 -0.24,0.68 -0.24,1.67 0.2,3.35 1.21,4.69l14.9 19.88c1.57,2.03 1.73,4.83 0.38,7.02 -1.29,2.21 -3.79,3.41 -6.32,3.04l-24.61 -3.51c-3.45,-0.5 -6.66,1.9 -7.15,5.36 0,0 0,0 0,0l-5.37 37.57c-0.5,3.45 1.9,6.66 5.36,7.16 0,0 0,0 0.01,0l24.6 3.51c3.46,0.49 5.86,3.7 5.37,7.16 -0.24,1.66 -1.13,3.16 -2.47,4.16l-19.88 14.91c-2.79,2.1 -3.36,6.06 -1.26,8.85l22.77 30.36c2.09,2.8 6.06,3.36 8.85,1.27l0 0 19.89 -14.91c2.79,-2.09 6.76,-1.52 8.85,1.28 1,1.34 1.43,3.02 1.19,4.67l-3.51 24.6c-0.49,3.46 1.91,6.67 5.37,7.16 0,0 0,0 0,0l37.57 5.37c0.29,0.04 0.59,0.06 0.89,0.06 3.15,0 5.82,-2.31 6.27,-5.43l3.51 -24.6c0.49,-3.46 3.69,-5.86 7.15,-5.37 1.66,0.24 3.16,1.13 4.17,2.47l14.91 19.88c2.1,2.79 6.06,3.36 8.85,1.26l0 0 30.36 -22.77c2.8,-2.09 3.36,-6.06 1.27,-8.85l-14.91 -19.88c-1.56,-2.04 -1.72,-4.83 -0.38,-7.02 1.27,-2.23 3.79,-3.45 6.32,-3.04l24.61 3.51c3.46,0.5 6.66,-1.9 7.16,-5.36 0,0 0,0 0,0l5.36 -37.57c0.02,-0.12 0.03,-0.24 0.04,-0.36zm-241.82 157.59l-13.57 13.54 -13.13 -9.06c-5.76,-3.96 -13.63,-2.51 -17.6,3.24 -0.95,1.38 -1.61,2.93 -1.96,4.57l-3.31 15.79 -15.04 0 -3.31 -15.76c-1.44,-6.84 -8.15,-11.22 -14.98,-9.78 -1.64,0.35 -3.2,1.01 -4.58,1.96l-13.14 9.04 -11.52 -11.5 9.05 -13.13c3.97,-5.75 2.52,-13.63 -3.23,-17.6 -1.38,-0.95 -2.93,-1.62 -4.58,-1.96l-15.76 -3.32 0 -15.03 15.76 -3.32c6.84,-1.45 11.2,-8.16 9.75,-15 -0.34,-1.62 -1,-3.16 -1.94,-4.53l-9.05 -13.16 11.52 -11.5 13.15 9.06c5.76,3.96 13.63,2.5 17.59,-3.25 0.95,-1.38 1.61,-2.93 1.96,-4.57l1.11 -5.26c1.01,7.28 2.69,14.46 5.01,21.44 -20.81,2.48 -35.67,21.37 -33.19,42.18 2.48,20.81 21.37,35.66 42.18,33.18 12.52,-1.49 23.49,-9.11 29.26,-20.33 3.45,2.82 7.06,5.45 10.8,7.87 5.98,3.78 10.48,9.49 12.75,16.19zm77.39 59.71l0 12.64 -50.59 0 0 -12.64 50.59 0zm-12.65 44.27l-25.3 0c-6.98,0 -12.64,-5.67 -12.64,-12.65l0 -6.33 50.59 0 0 6.33c0,6.98 -5.66,12.65 -12.65,12.65zm-121.59 -170.77c5.81,12.55 13.76,23.98 23.47,33.82 -4.72,13.12 -19.19,19.94 -32.32,15.21 -13.12,-4.72 -19.94,-19.19 -15.21,-32.32 3.61,-10.04 13.14,-16.73 23.82,-16.71 0.08,0 0.16,0 0.24,0z"/>
   <path class="fil18" d="M3282.2 3639.78c-20.95,0 -37.94,-16.99 -37.94,-37.95 0,-20.96 16.99,-37.95 37.94,-37.95 20.96,0 37.95,16.99 37.95,37.95 -0.02,20.95 -17,37.92 -37.95,37.95zm0 -88.55c-27.94,0 -50.59,22.66 -50.59,50.6 0,27.94 22.65,50.6 50.59,50.6 27.95,0 50.6,-22.66 50.6,-50.6 -0.03,-27.93 -22.67,-50.56 -50.6,-50.6z"/>
   <polygon class="fil19" points="3195.33,3789.9 3207.98,3789.9 3207.98,3770.92 3195.33,3770.92 "/>
   <path class="fil20" d="M3173.99 3708.81c-39.04,-15.25 -58.33,-59.27 -43.08,-98.31 5.91,-15.13 16.52,-27.96 30.27,-36.61l-6.76 -10.7c-41.38,26.06 -53.79,80.74 -27.72,122.11 10.09,16.02 25.06,28.39 42.7,35.28 15.61,5.98 25.93,20.97 25.93,37.69l12.65 0c0.02,-21.94 -13.5,-41.61 -33.99,-49.46z"/>
   <polygon class="fil21" points="3321.82,3739.3 3366.09,3739.3 3366.09,3726.65 3321.82,3726.65 "/>
   <polygon class="fil22" points="3311.45,3769.46 3319.54,3759.74 3357.49,3791.36 3349.4,3801.08 "/>
   <polygon class="fil23" points="3283.87,3821.52 3296.52,3821.52 3296.52,3777.25 3283.87,3777.25 "/>
   <polygon class="fil24" points="3016.71,3600.35 3067.3,3587.7 3070.37,3599.97 3019.78,3612.61 "/>
   <polygon class="fil25" points="3027.21,3535.74 3034.56,3525.45 3078.83,3557.07 3071.48,3567.36 "/>
   <polygon class="fil26" points="3081.4,3494.21 3093.66,3491.07 3106.59,3541.67 3094.34,3544.8 "/>
  </g>
 </g>
</svg>
