<?xml version="1.0" encoding="UTF-8"?>
<!DOCTYPE svg PUBLIC "-//W3C//DTD SVG 1.1//EN" "http://www.w3.org/Graphics/SVG/1.1/DTD/svg11.dtd">
<!-- Creator: CorelDRAW 2018 (64 Bit) -->
<svg xmlns="http://www.w3.org/2000/svg" xml:space="preserve" width="19.558mm" height="11.3452mm" version="1.1" style="shape-rendering:geometricPrecision; text-rendering:geometricPrecision; image-rendering:optimizeQuality; fill-rule:evenodd; clip-rule:evenodd"
viewBox="0 0 1955.8 1134.52"
 xmlns:xlink="http://www.w3.org/1999/xlink">
 <defs>
  <style type="text/css">
   <![CDATA[
    .str0 {stroke:#2A2A2C;stroke-width:8.47;stroke-miterlimit:22.9256}
    .fil0 {fill:none}
    .fil3 {fill:#282829;fill-rule:nonzero}
    .fil2 {fill:black;fill-rule:nonzero}
    .fil26 {fill:url(#id0);fill-rule:nonzero}
    .fil22 {fill:url(#id1);fill-rule:nonzero}
    .fil15 {fill:url(#id2);fill-rule:nonzero}
    .fil10 {fill:url(#id3);fill-rule:nonzero}
    .fil7 {fill:url(#id4);fill-rule:nonzero}
    .fil14 {fill:url(#id5);fill-rule:nonzero}
    .fil19 {fill:url(#id6);fill-rule:nonzero}
    .fil13 {fill:url(#id7);fill-rule:nonzero}
    .fil1 {fill:url(#id8);fill-rule:nonzero}
    .fil9 {fill:url(#id9);fill-rule:nonzero}
    .fil6 {fill:url(#id10);fill-rule:nonzero}
    .fil11 {fill:url(#id11);fill-rule:nonzero}
    .fil21 {fill:url(#id12);fill-rule:nonzero}
    .fil8 {fill:url(#id13);fill-rule:nonzero}
    .fil17 {fill:url(#id14);fill-rule:nonzero}
    .fil24 {fill:url(#id15);fill-rule:nonzero}
    .fil20 {fill:url(#id16);fill-rule:nonzero}
    .fil4 {fill:url(#id17);fill-rule:nonzero}
    .fil25 {fill:url(#id18);fill-rule:nonzero}
    .fil12 {fill:url(#id19);fill-rule:nonzero}
    .fil5 {fill:url(#id20);fill-rule:nonzero}
    .fil16 {fill:url(#id21);fill-rule:nonzero}
    .fil18 {fill:url(#id22);fill-rule:nonzero}
    .fil23 {fill:url(#id23);fill-rule:nonzero}
   ]]>
  </style>
  <linearGradient id="id0" gradientUnits="userSpaceOnUse" x1="1241.75" y1="1022.32" x2="1253.71" y2="1022.32">
   <stop offset="0" style="stop-opacity:1; stop-color:#333233"/>
   <stop offset="0.0117647" style="stop-opacity:1; stop-color:#333233"/>
   <stop offset="0.4" style="stop-opacity:1; stop-color:#FEFEFE"/>
   <stop offset="0.831373" style="stop-opacity:1; stop-color:#333233"/>
   <stop offset="1" style="stop-opacity:1; stop-color:#333233"/>
  </linearGradient>
  <linearGradient id="id1" gradientUnits="userSpaceOnUse" xlink:href="#id0" x1="1341.87" y1="1137.01" x2="1363.75" y2="1137.01">
  </linearGradient>
  <linearGradient id="id2" gradientUnits="userSpaceOnUse" xlink:href="#id0" x1="670.5" y1="1141.2" x2="743.8" y2="1141.2">
  </linearGradient>
  <linearGradient id="id3" gradientUnits="userSpaceOnUse" xlink:href="#id0" x1="605.14" y1="1115.32" x2="627.7" y2="1115.32">
  </linearGradient>
  <linearGradient id="id4" gradientUnits="userSpaceOnUse" xlink:href="#id0" x1="605.14" y1="1090.8" x2="627.7" y2="1090.8">
  </linearGradient>
  <linearGradient id="id5" gradientUnits="userSpaceOnUse" xlink:href="#id0" x1="605.14" y1="1139.84" x2="627.7" y2="1139.84">
  </linearGradient>
  <linearGradient id="id6" gradientUnits="userSpaceOnUse" xlink:href="#id0" x1="1291.77" y1="1137.01" x2="1297.77" y2="1137.01">
  </linearGradient>
  <linearGradient id="id7" gradientUnits="userSpaceOnUse" xlink:href="#id0" x1="667.48" y1="1115.32" x2="687.21" y2="1115.32">
  </linearGradient>
  <linearGradient id="id8" gradientUnits="userSpaceOnUse" x1="-198.81" y1="567.24" x2="2154.58" y2="567.24">
   <stop offset="0" style="stop-opacity:1; stop-color:blue"/>
   <stop offset="0.192157" style="stop-opacity:1; stop-color:blue"/>
   <stop offset="0.388235" style="stop-opacity:1; stop-color:#FEFEFE"/>
   <stop offset="0.6" style="stop-opacity:1; stop-color:white"/>
   <stop offset="1" style="stop-opacity:1; stop-color:red"/>
   <stop offset="1" style="stop-opacity:1; stop-color:blue"/>
  </linearGradient>
  <linearGradient id="id9" gradientUnits="userSpaceOnUse" xlink:href="#id0" x1="636.25" y1="1115.32" x2="658.8" y2="1115.32">
  </linearGradient>
  <linearGradient id="id10" gradientUnits="userSpaceOnUse" xlink:href="#id0" x1="636.25" y1="1090.8" x2="658.8" y2="1090.8">
  </linearGradient>
  <linearGradient id="id11" gradientUnits="userSpaceOnUse" xlink:href="#id0" x1="636.25" y1="1139.84" x2="658.8" y2="1139.84">
  </linearGradient>
  <linearGradient id="id12" gradientUnits="userSpaceOnUse" xlink:href="#id0" x1="1346.42" y1="1116.28" x2="1367.46" y2="1116.28">
  </linearGradient>
  <linearGradient id="id13" gradientUnits="userSpaceOnUse" xlink:href="#id0" x1="698.47" y1="1090.8" x2="721.02" y2="1090.8">
  </linearGradient>
  <linearGradient id="id14" gradientUnits="userSpaceOnUse" xlink:href="#id0" x1="1203.85" y1="1094.17" x2="1384.95" y2="1094.17">
  </linearGradient>
  <linearGradient id="id15" gradientUnits="userSpaceOnUse" xlink:href="#id0" x1="1212.93" y1="1058.24" x2="1238.43" y2="1058.24">
  </linearGradient>
  <linearGradient id="id16" gradientUnits="userSpaceOnUse" xlink:href="#id0" x1="1254.24" y1="1084.71" x2="1299.34" y2="1084.71">
  </linearGradient>
  <linearGradient id="id17" gradientUnits="userSpaceOnUse" xlink:href="#id0" x1="878.92" y1="1222.43" x2="1083.49" y2="1222.43">
  </linearGradient>
  <linearGradient id="id18" gradientUnits="userSpaceOnUse" xlink:href="#id0" x1="1217.56" y1="1034.76" x2="1242.08" y2="1034.76">
  </linearGradient>
  <linearGradient id="id19" gradientUnits="userSpaceOnUse" xlink:href="#id0" x1="667.36" y1="1090.8" x2="689.91" y2="1090.8">
  </linearGradient>
  <linearGradient id="id20" gradientUnits="userSpaceOnUse" xlink:href="#id0" x1="578.51" y1="1089.44" x2="747.65" y2="1089.44">
  </linearGradient>
  <linearGradient id="id21" gradientUnits="userSpaceOnUse" xlink:href="#id0" x1="686.74" y1="1143.27" x2="728.19" y2="1143.27">
  </linearGradient>
  <linearGradient id="id22" gradientUnits="userSpaceOnUse" xlink:href="#id0" x1="1305.92" y1="1058.97" x2="1354.01" y2="1058.97">
  </linearGradient>
  <linearGradient id="id23" gradientUnits="userSpaceOnUse" xlink:href="#id0" x1="1330.46" y1="1145.29" x2="1336.47" y2="1145.29">
  </linearGradient>
 </defs>
 <g id="Camada_x0020_1">
  <metadata id="CorelCorpID_0Corel-Layer"/>
  <rect class="fil0" y="-0" width="1955.8" height="1134.53"/>
  <g id="_2400627782080">
   <path class="fil1" d="M1993.64 610.9c0.7,-13.92 2.38,-27.79 2.38,-42.41 0,-12.55 -1.35,-25.17 -2.04,-37.72 5,-24.52 17.55,-49.38 29.18,-72.61 11.61,-25.79 23.83,-49.02 26.55,-62.24 10.6,-43.44 -14.6,-69.58 -42.41,-86.53 -19.91,-12.19 -40.78,-20.19 -53.69,-29.09 -7.29,-24.86 -16.3,-49.38 -25.53,-73.61 -2.62,-25.78 0,-54.29 1.94,-80.16 3.66,-28.83 7.99,-54.96 6.64,-68.28 -12.55,-76.16 -92.71,-68.49 -130.55,-77.85 -14.83,-21.2 -30.43,-41.71 -46.98,-61.57 -24.83,-47.07 -26.9,-120.25 -40.43,-141.82 -34.14,-70.56 -109.71,-34.43 -147.77,-32.14 -21.2,-14.91 -42.74,-29.19 -64.98,-42.39 -37.07,-39.12 -65.56,-103.04 -84.12,-122.23 -30.46,-32.48 -66.91,-23.92 -95.76,-11.64 -20.85,9.26 -38.78,22.56 -53.95,29.19 -25.87,-7.62 -52.41,-14.57 -79.53,-20.27 -46.76,-23.82 -92.13,-76.16 -115.28,-86.07 -39.79,-18.27 -71.26,-2.06 -94.15,19.14 -16.88,16.97 -29.77,35.82 -41.71,46.76 -26.47,1.01 -53.38,2.62 -79.49,5.65 -52.67,-5.98 -114,-43.06 -139.51,-43.73 -43.76,-5.6 -68.55,18.9 -82.8,49.33 -10.6,20.87 -16.62,42.78 -24.57,56.7 -24.53,9.56 -48.35,20.17 -71.86,31.44 -52.66,9.93 -121.63,-1.37 -147.74,3.63 -43.76,7.98 -56.64,43.11 -61.65,73.88 -3.99,22.58 -2.66,45.39 -5.26,61.67 -20.63,17.55 -40.8,35.44 -59.72,54.29 -45.01,26.88 -115.95,35.1 -136.13,50.03 -66.59,40.46 -25.5,112.27 -19.57,150.45 -13.27,22.17 -25.82,45.06 -37.41,68.55 -16.2,19.59 -39.78,36.16 -60.65,51.4 -22.82,17.21 -44.7,31.78 -53.35,42.07 -30.44,32.72 -19.16,68.54 -3.66,96.1 11.98,20.19 25.56,37.05 33.18,51.3 -5.6,25.87 -9.25,52.34 -12.57,78.86 -21.52,49.38 -66.31,99.99 -77.85,124.3 -3.1,9.06 -4.69,17.47 -5,25.34l0 6.17c2.16,50.83 57.65,76.65 82.2,98.99 3.27,27.16 6.95,54.62 12.55,81.16 -2.65,52.34 -34.12,114.92 -32.51,139.78 -2.28,77.85 79.92,82.54 115.38,98.4 11.25,23.54 23.8,46.38 37.03,68.93 7.66,24.19 8.31,53.01 9.68,78.79 1.95,28.49 2.29,54.74 6.3,67.63 10.92,43.39 46.72,53.35 78.5,55.73 23.51,1.25 45.08,-1.04 60.9,0.21 18.92,18.59 38.78,36.16 58.71,53.35 30.46,43.76 46.64,112.06 61.93,133.58 26.21,34.79 61.64,35.48 92.1,27.5 22.89,-6.63 43.4,-17.24 58.93,-21.2 23.92,11.63 47.75,22.45 72.27,32.48 20.87,14.23 39.43,35.44 56,55.97 18.53,21.88 35.1,41.4 46.37,49.38 17.55,12.55 35.13,16.85 51.33,15.17 16.25,-2.28 31.54,-10.27 44.74,-19.52 19.19,-13.22 35.13,-29.53 48.38,-37.72 26.2,3.29 52.31,4.93 79.21,6.27 50.95,16.88 105.67,58.95 130.86,66.91 42.41,14.93 70.21,-10.94 89.39,-35.46 13.92,-18.23 23.92,-38.06 33.49,-50.73 26.81,-5.55 52.68,-12.5 78.23,-20.17 53.35,-1.04 118.53,22.24 144.42,21.2 43.42,-2.93 63.62,-32.45 73.55,-61.9 6.95,-23.23 9.25,-46.07 14.59,-61.31 21.88,-13.25 43.42,-26.81 64.29,-41.4 23.83,-10.29 52.31,-14.91 79.46,-17.58 28.49,-3.63 54.02,-6.94 66.31,-11.94 42.09,-14.91 50.68,-50.04 49.38,-82.88 -0.68,-23.49 -5.34,-45.34 -5,-61.21 16.51,-19.59 31.8,-39.79 47.07,-60.63 8.92,-7.65 18.83,-14.96 30.1,-21.21 12.65,-7.98 25.85,-14.93 38.78,-21.2 25.85,-12.91 50.03,-23.51 60.63,-31.81 56.98,-52 6.95,-115.02 -5.93,-151.73 9.9,-24.52 18.82,-49.38 26.8,-74.91 25.87,-45.73 85.14,-87.11 95.74,-109.99 39.79,-66.94 -30.44,-110 -54.36,-140.82zm-1011.15 859.12c-496.93,0 -901.41,-404.22 -901.41,-901.53 0,-496.92 404.48,-901.47 901.41,-901.47 497.35,0 901.81,404.55 901.81,901.47 0,497.31 -404.46,901.53 -901.81,901.53z"/>
   <path class="fil2" d="M1695.28 565.92c0.3,-5.81 -2.56,-11.71 -7.87,-15.12l-4.89 -3.14c-6.82,-4.37 -17.1,-1.53 -20.95,5.5l-1.99 3.63c-0.21,0.39 -0.21,0.73 -0.38,1.1 -34.18,11.35 -131.67,-12.67 -148.63,-19.3 -45.06,-17.59 -78.18,-50.81 -111.5,-84.76 -44.67,-45.5 -89.07,-92.52 -152.25,-110.73 -109,-31.44 -223.01,27.55 -258.63,131.17 -24.04,-103.5 -143.8,-152.14 -245.53,-131.55 -75.83,15.35 -140.59,60.14 -198.28,109.63 -71.87,61.64 -166.41,194.84 -272.57,131.78 -9.48,-5.63 -19.85,7.07 -12.74,15.14 0.12,1.02 0.34,1.97 0.48,2.98 -5.14,6.93 -5.44,17.85 3.81,22.53 0.47,0.24 0.94,0.47 1.4,0.71 35.3,113.34 199.95,159.07 304.22,171.07 146.82,16.89 292.01,-31.3 393.51,-137.12 5,-3.18 9.85,-6.25 14.56,-9.25 181.55,186.09 602.74,190.9 721.25,-66.74 3.15,-6.84 1.09,-13.25 -3.02,-17.53z"/>
   <path class="fil3" d="M988.86 -284.32c-469.47,0 -851.47,382.02 -851.47,851.47 0,469.51 382,851.44 851.47,851.44 469.41,0 851.46,-381.93 851.46,-851.44 0,-469.45 -382.05,-851.47 -851.46,-851.47zm0 1648.65c-439.35,0 -797.19,-357.84 -797.19,-797.18 0,-439.25 357.84,-796.73 797.19,-796.73 439.24,0 796.72,357.48 796.72,796.73 0,439.34 -357.48,797.18 -796.72,797.18z"/>
   <ellipse class="fil0 str0" cx="981.21" cy="1222.43" rx="126.36" ry="118.02"/>
   <path class="fil4" d="M1054.73 1252.09c-0.97,-3.41 -2.65,-6.62 -5.03,-9.33 -6.51,-7.2 -16.42,-9.11 -24.34,-4.99 -0.06,0.02 -0.12,0 -0.17,0 -8.96,4.29 -22.99,-4.73 -30.13,-7.19 -3.94,-1.34 -7.52,-4.28 -10.97,-6.89 5.45,0.36 11.17,3.49 13.82,4.96 0.53,0.28 0.98,0.03 0.66,-0.37 -2.41,-3.03 -4.43,-5.85 -5.64,-8.52l6.88 6.65 0.96 -1.07 -8.85 -8.59c-0.14,-0.73 -0.22,-1.47 -0.2,-2.18l9.97 9.67 0.95 -1.11 -10.66 -10.3c0.11,-0.47 0.29,-0.95 0.49,-1.38l11.03 10.63 0.95 -1.06 -11.23 -10.89c0.26,-0.4 0.55,-0.77 0.86,-1.17l11.29 10.95 0.95 -1.11 -11.29 -10.91c0.26,-0.34 0.58,-0.71 0.92,-1.11l11.32 10.92 0.93 -1.07 -11.29 -10.95c0.29,-0.3 0.57,-0.68 0.86,-1.01l11.29 10.91 0.95 -1.1 -11.29 -10.92c0.26,-0.3 0.52,-0.61 0.77,-0.92l11.3 10.95 0.92 -1.1 -11.29 -10.96c0.31,-0.33 0.63,-0.7 0.95,-1.06l11.28 10.91 0.96 -1.1 -11.29 -10.92c0.29,-0.34 0.57,-0.68 0.86,-1.05l11.3 10.96 0.92 -1.11 -11.3 -10.92c0.32,-0.37 0.61,-0.73 0.96,-1.1l11.28 10.95 0.92 -1.1 -11.28 -10.96c0.32,-0.34 0.63,-0.7 0.95,-1.07l11.28 10.92 0.93 -1.08 -11.29 -10.94c0.29,-0.34 0.6,-0.68 0.89,-1.02l11.29 10.92 0.92 -1.1 -11.29 -10.92c0.23,-0.28 0.47,-0.55 0.69,-0.8l11.29 10.92 0.93 -1.07 -11.29 -10.96c0.31,-0.36 0.63,-0.73 0.95,-1.1l11.29 10.95 0.95 -1.1 -11.29 -10.95c0.29,-0.34 0.57,-0.68 0.86,-1.01l11.29 10.94 0.92 -1.1 -11.29 -10.95c0.32,-0.34 0.64,-0.71 0.95,-1.07l11.29 10.92 0.92 -1.1 -11.25 -10.96c0.31,-0.37 0.6,-0.74 0.92,-1.1l11.29 10.95 0.94 -1.11 -11.28 -10.92c0.29,-0.33 0.58,-0.7 0.86,-1.04l11.29 10.95 0.95 -1.1 -11.29 -10.96c0.23,-0.27 0.49,-0.57 0.75,-0.85l11.29 10.91 0.92 -1.06 -11.29 -10.96c0.28,-0.34 0.57,-0.67 0.87,-1.01l11.29 10.92 0.95 -1.07 -11.3 -10.95c0.27,-0.31 0.53,-0.61 0.78,-0.92l11.29 10.94 0.95 -1.1 -11.29 -10.92c0.29,-0.36 0.61,-0.74 0.93,-1.1l11.28 10.92 0.95 -1.08 -11.28 -10.94c0.29,-0.34 0.57,-0.68 0.86,-1.02l11.29 10.92 0.95 -1.1 -11.29 -10.92c0.32,-0.37 0.63,-0.74 0.92,-1.11l11.29 10.95 0.95 -1.1 -11.29 -10.92c0.32,-0.4 0.64,-0.77 0.93,-1.11l11.28 10.93 0.95 -1.11 -11.28 -10.93c0.28,-0.35 0.6,-0.69 0.86,-1.03l11.29 10.95 0.95 -1.1 -11.29 -10.92c0.23,-0.28 0.46,-0.55 0.69,-0.81l11.29 10.93 0.92 -1.08 -11.29 -10.95c0.34,-0.4 0.66,-0.77 0.95,-1.1l11.29 10.95 0.92 -1.1 -11.29 -10.96c0.49,-0.55 0.78,-0.89 0.78,-0.89 0.03,-0.03 0.06,-0.06 0.09,-0.12l11.29 10.95 0.95 -1.11 -11.3 -10.94c0.32,-0.37 0.64,-0.74 0.96,-1.11l11.29 10.96 0.92 -1.08 -11.29 -10.95c0.34,-0.4 0.66,-0.77 0.95,-1.11l11.29 10.95 0.95 -1.1 -11.29 -10.95c0.35,-0.39 0.6,-0.71 0.86,-1.02l11.3 10.96 0.94 -1.11 -11.29 -10.92c0.26,-0.33 0.52,-0.61 0.78,-0.86l11.23 10.89 0.95 -1.1 -11.06 -10.71c0.44,-0.27 0.9,-0.52 1.36,-0.7l10.63 10.34 0.94 -1.11 -9.96 -9.66c0.69,-0.09 1.35,-0.09 2.08,0l8.84 8.55 0.92 -1.1 -6.89 -6.66c2.57,0.99 5.3,2.8 8.3,5.04 0.4,0.3 0.81,-0.06 0.49,-0.58 -6.08,-9.94 -19.01,-12.95 -24.05,-7.06 -1.09,1.26 -3.4,3.95 -6.36,7.42 0,0 -18.43,21.6 -31.86,37.3 -0.54,0.65 -1.12,1.32 -1.64,1.94 -5.53,6.47 -9.99,11.69 -11.52,13.49l-13.04 15.29c-0.09,-0.04 -0.18,-0.07 -0.24,-0.1 -0.37,-0.09 -1.06,-0.37 -1.98,-0.8l-39.92 -90.19 21.86 78.81c0,0 0.2,0.74 0.52,2.03 -26.95,-15.06 -69.12,-43.9 -69.12,-43.9 0,0 71.63,66.62 74.19,68.87 0.11,0.64 0.26,1.29 0.4,1.97l-49.59 58.03 1.58 1.56 49.43 -54.63c4.4,13.22 13.36,27.09 3.97,34.14 0,0.04 0,0.1 0,0.13 -8.44,6.31 -10.28,19.66 -3.95,30.27 6.48,10.9 19.09,14.79 28.11,8.69 5.56,-3.75 8.29,-11.36 10.48,-18.65 -1.87,-5.86 -3.37,-7.98 -5.9,-12.15 -1.62,-2.77 -3.66,-5.04 -5.91,-6.84 -4.89,-4.97 -19.21,-42 -17.76,-45.43 17.47,-0.28 39.8,14.17 42.33,27.63 0.03,0 0.06,-0.06 0.09,-0.06 0.43,5.21 2.42,10.12 5.9,14.02 7.03,7.82 18.09,9.48 26.23,3.96 1.07,-0.71 2.09,-1.57 3,-2.49 3.34,-3.4 5.28,-7.85 5.79,-12.73 1.91,-0.74 4.67,-1.44 7.26,-0.83 9.65,2.7 12.24,-5.76 12.44,-8.4 0.2,-2.52 -13.74,4.91 -20.51,0.09zm-94.02 -27.42c-1.24,-2.09 -0.66,-4.85 1.29,-6.17 1.96,-1.32 4.55,-0.7 5.79,1.38 1.23,2.09 0.66,4.85 -1.29,6.17 -1.94,1.32 -4.55,0.7 -5.79,-1.38zm17.1 54.01c0.49,0.07 0.98,0.13 1.47,0.16 4.15,0.71 8.29,3.56 11.03,8.1 4.52,7.61 3.37,17.05 -2.56,21.08 -5.94,4.02 -14.46,1.09 -18.98,-6.51 -4.52,-7.61 -3.4,-17.05 2.53,-21.07 1.96,-1.36 4.23,-1.84 6.51,-1.76zm67.39 -9.84c-0.63,0.62 -1.26,1.2 -1.98,1.65 -5.51,3.75 -13.05,2.52 -17.89,-2.91 -2.71,-3 -4.23,-6.9 -4.26,-10.95 -0.03,-3.95 1.38,-7.57 3.97,-10.22 0.61,-0.61 1.27,-1.16 1.96,-1.65 5.53,-3.72 13.04,-2.48 17.89,2.91 2.74,3.01 4.23,6.91 4.26,10.96 0.03,3.95 -1.38,7.61 -3.95,10.21z"/>
   <ellipse class="fil0 str0" cx="663.08" cy="1094.89" rx="126.36" ry="118.02"/>
   <path class="fil5" d="M727.89 1029.51l-12.96 0 0 -5.45c0,-6.01 -4.64,-10.89 -10.37,-10.89 -5.73,0 -10.37,4.88 -10.37,10.89l0 5.45 -20.74 0 0 -5.45c0,-6.01 -4.64,-10.89 -10.37,-10.89 -5.72,0 -10.37,4.88 -10.37,10.89l0 5.45 -20.74 0 0 -5.45c0,-6.01 -4.64,-10.89 -10.37,-10.89 -5.72,0 -10.36,4.88 -10.36,10.89l0 5.45 -12.97 0c-7.15,0 -12.96,6.1 -12.96,13.62l0 108.96c0,7.53 5.81,13.62 12.96,13.62l72.59 0c1.43,0 2.59,-1.22 2.59,-2.72 0,-1.5 -1.16,-2.72 -2.59,-2.72l-72.59 0c-4.29,-0.02 -7.76,-3.67 -7.77,-8.18l0 -84.44 145.17 0 0 46.31c0,1.5 1.16,2.72 2.59,2.72 1.43,0 2.59,-1.22 2.59,-2.72l0 -70.83c0,-7.52 -5.8,-13.62 -12.96,-13.62zm-28.52 -5.45c0,-3.01 2.32,-5.45 5.19,-5.45 2.86,0 5.18,2.44 5.18,5.45l0 16.35c0,3.01 -2.32,5.45 -5.18,5.45 -2.87,0 -5.19,-2.44 -5.19,-5.45l0 -16.35zm-41.47 0c0,-3.01 2.32,-5.45 5.18,-5.45 2.87,0 5.19,2.44 5.19,5.45l0 16.35c0,3.01 -2.32,5.45 -5.19,5.45 -2.86,0 -5.18,-2.44 -5.18,-5.45l0 -16.35zm-41.48 0c0,-3.01 2.32,-5.45 5.18,-5.45 2.87,0 5.19,2.44 5.19,5.45l0 16.35c0,3.01 -2.32,5.45 -5.19,5.45 -2.86,0 -5.18,-2.44 -5.18,-5.45l0 -16.35zm119.25 38.14l-145.17 0 0 -19.07c0.01,-4.51 3.48,-8.16 7.77,-8.17l12.97 0 0 5.45c0,6.01 4.64,10.89 10.36,10.89 5.73,0 10.37,-4.88 10.37,-10.89l0 -5.45 20.74 0 0 5.45c0,6.01 4.65,10.89 10.37,10.89 5.73,0 10.37,-4.88 10.37,-10.89l0 -5.45 20.74 0 0 5.45c0,6.01 4.64,10.89 10.37,10.89 5.73,0 10.37,-4.88 10.37,-10.89l0 -5.45 12.96 0c4.29,0.01 7.76,3.66 7.78,8.17l0 19.07z"/>
   <path class="fil6" d="M657.9 1086.72c0,-3.01 -2.32,-5.45 -5.19,-5.45l-10.37 0c-2.86,0 -5.18,2.44 -5.18,5.45l0 8.17c0,3.01 2.32,5.45 5.18,5.45l10.37 0c2.87,0 5.19,-2.44 5.19,-5.45l0 -8.17zm-15.56 8.17l0 -8.17 10.37 0 0 8.17 -10.37 0z"/>
   <path class="fil7" d="M626.79 1086.72c0,-3.01 -2.32,-5.45 -5.19,-5.45l-10.36 0c-2.87,0 -5.19,2.44 -5.19,5.45l0 8.17c0,3.01 2.32,5.45 5.19,5.45l10.36 0c2.87,0 5.19,-2.44 5.19,-5.45l0 -8.17zm-15.55 8.17l0 -8.17 10.36 0 0 8.17 -10.36 0z"/>
   <path class="fil8" d="M714.93 1100.34c2.86,0 5.18,-2.44 5.18,-5.45l0 -8.17c0,-3.01 -2.32,-5.45 -5.18,-5.45l-10.37 0c-2.87,0 -5.19,2.44 -5.19,5.45l0 8.17c0,3.01 2.32,5.45 5.19,5.45l10.37 0zm-10.37 -13.62l10.37 0 0 8.17 -10.37 0 0 -8.17z"/>
   <path class="fil9" d="M657.9 1111.23c0,-3.01 -2.32,-5.45 -5.19,-5.45l-10.37 0c-2.86,0 -5.18,2.44 -5.18,5.45l0 8.18c0,3 2.32,5.44 5.18,5.44l10.37 0c2.87,0 5.19,-2.44 5.19,-5.44l0 -8.18zm-15.56 8.18l0 -8.18 10.37 0 0 8.18 -10.37 0z"/>
   <path class="fil10" d="M626.79 1111.23c0,-3.01 -2.32,-5.45 -5.19,-5.45l-10.36 0c-2.87,0 -5.19,2.44 -5.19,5.45l0 8.18c0,3 2.32,5.44 5.19,5.44l10.36 0c2.87,0 5.19,-2.44 5.19,-5.44l0 -8.18zm-15.55 8.18l0 -8.18 10.36 0 0 8.18 -10.36 0z"/>
   <path class="fil11" d="M652.71 1130.3l-10.37 0c-2.86,0 -5.18,2.44 -5.18,5.45l0 8.17c0,3.01 2.32,5.45 5.18,5.45l10.37 0c2.87,0 5.19,-2.44 5.19,-5.45l0 -8.17c0,-3.01 -2.32,-5.45 -5.19,-5.45zm-10.37 13.62l0 -8.17 10.37 0 0 8.17 -10.37 0z"/>
   <path class="fil12" d="M673.45 1100.34l10.37 0c2.86,0 5.19,-2.44 5.19,-5.45l0 -8.17c0,-3.01 -2.33,-5.45 -5.19,-5.45l-10.37 0c-2.86,0 -5.18,2.44 -5.18,5.45l0 8.17c0,3.01 2.32,5.45 5.18,5.45zm0 -13.62l10.37 0 0 8.17 -10.37 0 0 -8.17z"/>
   <path class="fil13" d="M668.27 1119.41c0,3 2.32,5.44 5.18,5.44 1.43,0 2.59,-1.22 2.59,-2.72 0,-1.5 -1.16,-2.72 -2.59,-2.72l0 -8.18 10.37 0c1.43,0 2.59,-1.22 2.59,-2.72 0,-1.5 -1.16,-2.73 -2.59,-2.73l-10.37 0c-2.86,0 -5.18,2.44 -5.18,5.45l0 8.18z"/>
   <path class="fil14" d="M621.6 1130.3l-10.36 0c-2.87,0 -5.19,2.44 -5.19,5.45l0 8.17c0,3.01 2.32,5.45 5.19,5.45l10.36 0c2.87,0 5.19,-2.44 5.19,-5.45l0 -8.17c0,-3.01 -2.32,-5.45 -5.19,-5.45zm-10.36 13.62l0 -8.17 10.36 0 0 8.17 -10.36 0z"/>
   <path class="fil15" d="M707.15 1105.78c-13.63,0 -25.92,8.63 -31.13,21.87 -5.22,13.23 -2.34,28.46 7.3,38.59 9.64,10.13 24.13,13.16 36.73,7.67 12.59,-5.48 20.8,-18.39 20.8,-32.71 -0.02,-19.55 -15.1,-35.39 -33.7,-35.42zm0 65.38c-11.53,0 -21.93,-7.3 -26.34,-18.5 -4.42,-11.19 -1.98,-24.08 6.18,-32.65 8.15,-8.57 20.42,-11.13 31.07,-6.5 10.66,4.64 17.61,15.57 17.61,27.69 -0.02,16.54 -12.78,29.94 -28.52,29.96z"/>
   <path class="fil16" d="M722.13 1129.78l-20.16 21.19 -9.17 -9.64c-1.01,-1.03 -2.63,-1.01 -3.63,0.04 -1,1.05 -1.02,2.75 -0.03,3.82l10.99 11.55c1.02,1.07 2.66,1.07 3.67,0l22 -23.11c0.98,-1.07 0.96,-2.77 -0.04,-3.82 -1,-1.05 -2.61,-1.06 -3.63,-0.03z"/>
   <path class="fil0 str0" d="M1294.4 977.37c68.86,0 124.68,52.14 124.68,116.46 0,64.32 -55.82,116.46 -124.68,116.46 -68.86,0 -124.68,-52.14 -124.68,-116.46 0,-64.32 55.82,-116.46 124.68,-116.46z"/>
   <path class="fil17" d="M1370.21 1070.31l-8.01 -1.15c-4.53,-0.65 -8.73,2.5 -9.38,7.04 -0.31,2.17 0.26,4.39 1.57,6.14l4.86 6.48 -8.84 6.63 -4.86 -6.47c-2.75,-3.66 -7.94,-4.41 -11.61,-1.66 -1.76,1.32 -2.92,3.28 -3.23,5.46l-1.12 8.02 -10.94 -1.56 1.14 -8.01c0.65,-4.54 -2.5,-8.74 -7.03,-9.39 -2.18,-0.31 -4.39,0.26 -6.15,1.58l-6.48 4.85 -6.63 -8.84 6.47 -4.86c3.67,-2.74 4.41,-7.94 1.66,-11.6 -1.31,-1.76 -3.28,-2.93 -5.46,-3.24l-8.01 -1.14 1.56 -10.94 8.02 1.14c4.53,0.65 8.73,-2.5 9.38,-7.03 0.31,-2.18 -0.25,-4.39 -1.57,-6.15l-4.88 -6.48 8.85 -6.63 4.86 6.47c2.74,3.67 7.94,4.41 11.6,1.66 1.76,-1.32 2.92,-3.28 3.24,-5.46l1.14 -8.01 10.94 1.56 -1.14 8.01c-0.65,4.54 2.5,8.74 7.03,9.38 2.18,0.31 4.39,-0.25 6.15,-1.57l6.47 -4.86 6.64 8.85 -6.48 4.85c-3.66,2.75 -4.41,7.95 -1.66,11.61 1.32,1.76 3.28,2.92 5.46,3.23l8.02 1.15 -1.58 10.94zm7.46 -13.05l0 -0.48c-0.11,-1.25 -1.06,-2.3 -2.36,-2.49 0,0 0,0 0,0l-0.01 -0.01 -10.75 -1.53c-1.51,-0.22 -2.56,-1.62 -2.34,-3.13 0.1,-0.72 0.49,-1.38 1.07,-1.82l8.69 -6.51c1.22,-0.92 1.47,-2.65 0.56,-3.87l-9.95 -13.27c-0.92,-1.22 -2.65,-1.47 -3.87,-0.55l0 0 -8.69 6.52c-1.21,0.92 -2.95,0.68 -3.87,-0.54 -0.45,-0.59 -0.64,-1.33 -0.53,-2.06l1.53 -10.75c0.22,-1.52 -0.83,-2.92 -2.34,-3.13 0,0 0,0 0,0l-16.41 -2.35c-1.51,-0.21 -2.91,0.84 -3.12,2.35 0,0 0,0 0,0l-1.54 10.75c-0.22,1.51 -1.62,2.56 -3.13,2.34 -0.72,-0.1 -1.38,-0.49 -1.82,-1.07l-6.51 -8.69c-0.92,-1.22 -2.65,-1.47 -3.87,-0.56l0 0 -8.31 6.24c-3.75,-0.4 -7.54,-0.4 -11.3,0 -24.6,2.81 -43.9,22.43 -46.3,47.08 -0.07,0.78 -0.1,1.56 -0.14,2.33l-0.83 0c-1.31,0.01 -2.44,0.93 -2.7,2.21l-1.91 9.09 -7.65 -5.28c-1.1,-0.76 -2.58,-0.62 -3.52,0.32l-8.29 8.29c-0.94,0.94 -1.08,2.42 -0.32,3.52l5.25 7.64 -9.09 1.91c-1.27,0.28 -2.17,1.4 -2.17,2.7l0 11.06c0,1.3 0.92,2.43 2.2,2.7l9.08 1.91 -5.25 7.64c-0.76,1.1 -0.62,2.58 0.32,3.52l8.29 8.29c0.94,0.94 2.43,1.08 3.52,0.32l7.64 -5.26 1.91 9.08c0.26,1.28 1.39,2.21 2.7,2.21l11.06 0c1.3,0 2.43,-0.92 2.7,-2.19l1.91 -9.09 7.64 5.25c1.09,0.76 2.58,0.62 3.52,-0.32l4.29 -4.3 0 7.87c0.01,3.93 2.12,7.56 5.53,9.52l0 15.35c0,6.11 4.95,11.06 11.05,11.06l11.06 0c6.1,0 11.05,-4.95 11.05,-11.06l0 -15.35c3.41,-1.96 5.51,-5.59 5.53,-9.52l0 -10.94c0.07,-4.6 2.48,-8.85 6.39,-11.28 2.29,-1.48 4.47,-3.15 6.5,-4.97l-3.68 -4.12c-1.82,1.63 -3.77,3.12 -5.83,4.45 -5.48,3.45 -8.84,9.45 -8.91,15.92l0 10.94c0,3.06 -2.48,5.53 -5.53,5.53l-22.11 0c-3.05,0 -5.52,-2.47 -5.52,-5.53l0 -11.17c-0.07,-6.35 -3.37,-12.23 -8.77,-15.59 -21.9,-13.77 -28.5,-42.68 -14.74,-64.58 8.54,-13.59 23.44,-21.86 39.49,-21.92 -0.04,0.1 -0.07,0.2 -0.1,0.3 -0.11,0.73 0.08,1.46 0.52,2.05l6.52 8.68c0.68,0.89 0.75,2.11 0.16,3.07 -0.56,0.96 -1.65,1.49 -2.76,1.33l-10.75 -1.54c-1.51,-0.21 -2.91,0.84 -3.13,2.35 0,0 0,0 0,0l-2.34 16.41c-0.22,1.51 0.83,2.91 2.34,3.13 0,0 0,0 0,0l10.75 1.54c1.51,0.21 2.56,1.61 2.35,3.12 -0.11,0.73 -0.49,1.38 -1.08,1.82l-8.69 6.52c-1.22,0.91 -1.46,2.65 -0.55,3.87l9.95 13.26c0.92,1.22 2.65,1.47 3.87,0.55l0 0 8.69 -6.51c1.22,-0.91 2.95,-0.66 3.87,0.56 0.43,0.58 0.62,1.32 0.52,2.04l-1.53 10.75c-0.22,1.51 0.83,2.91 2.34,3.13 0,0 0,0 0,0l16.41 2.35c0.13,0.01 0.26,0.02 0.39,0.02 1.38,0 2.55,-1.01 2.74,-2.37l1.54 -10.75c0.21,-1.51 1.61,-2.56 3.12,-2.35 0.73,0.11 1.38,0.49 1.82,1.08l6.52 8.69c0.92,1.22 2.65,1.47 3.87,0.55l0 0 13.26 -9.95c1.22,-0.91 1.47,-2.65 0.56,-3.87l-6.52 -8.68c-0.68,-0.89 -0.75,-2.11 -0.16,-3.07 0.55,-0.98 1.65,-1.51 2.76,-1.33l10.75 1.54c1.51,0.21 2.91,-0.84 3.13,-2.35 0,0 0,0 0,0l2.34 -16.41c0.01,-0.06 0.02,-0.11 0.02,-0.16zm-105.67 68.86l-5.92 5.91 -5.74 -3.95c-2.52,-1.74 -5.96,-1.1 -7.69,1.41 -0.42,0.6 -0.71,1.28 -0.86,2l-1.45 6.9 -6.56 0 -1.45 -6.89c-0.63,-2.99 -3.56,-4.9 -6.55,-4.27 -0.72,0.15 -1.4,0.44 -2,0.86l-5.74 3.94 -5.04 -5.02 3.96 -5.74c1.73,-2.51 1.1,-5.95 -1.41,-7.69 -0.6,-0.41 -1.28,-0.7 -2,-0.86l-6.89 -1.45 0 -6.56 6.89 -1.45c2.99,-0.64 4.89,-3.57 4.26,-6.56 -0.15,-0.71 -0.44,-1.38 -0.85,-1.98l-3.96 -5.75 5.04 -5.02 5.74 3.95c2.52,1.73 5.96,1.1 7.69,-1.42 0.42,-0.6 0.71,-1.28 0.86,-1.99l0.48 -2.3c0.44,3.18 1.18,6.32 2.19,9.37 -9.09,1.08 -15.58,9.34 -14.5,18.43 1.08,9.09 9.33,15.58 18.43,14.5 5.47,-0.65 10.26,-3.98 12.78,-8.89 1.51,1.24 3.09,2.39 4.73,3.44 2.61,1.65 4.57,4.15 5.56,7.08zm33.82 26.09l0 5.52 -22.11 0 0 -5.52 22.11 0zm-5.52 19.34l-11.06 0c-3.05,0 -5.53,-2.47 -5.53,-5.53l0 -2.76 22.11 0 0 2.76c0,3.06 -2.47,5.53 -5.52,5.53zm-53.14 -74.61c2.54,5.48 6.02,10.47 10.26,14.77 -2.06,5.74 -8.38,8.71 -14.12,6.65 -5.74,-2.06 -8.71,-8.39 -6.65,-14.12 1.58,-4.39 5.74,-7.31 10.41,-7.3 0.03,0 0.07,0 0.1,0z"/>
   <path class="fil18" d="M1329.96 1075.56c-9.15,0 -16.58,-7.43 -16.58,-16.58 0,-9.16 7.43,-16.59 16.58,-16.59 9.16,0 16.59,7.43 16.59,16.59 -0.01,9.15 -7.43,16.57 -16.59,16.58zm0 -38.69c-12.21,0 -22.1,9.9 -22.1,22.11 0,12.21 9.89,22.1 22.1,22.1 12.21,0 22.11,-9.89 22.11,-22.1 -0.01,-12.21 -9.9,-22.1 -22.11,-22.11z"/>
   <polygon class="fil19" points="1292,1141.15 1297.53,1141.15 1297.53,1132.86 1292,1132.86 "/>
   <path class="fil20" d="M1282.68 1105.72c-17.06,-6.66 -25.49,-25.9 -18.82,-42.96 2.58,-6.61 7.22,-12.21 13.22,-15.99l-2.95 -4.68c-18.08,11.39 -23.5,35.28 -12.12,53.36 4.42,7 10.96,12.4 18.66,15.41 6.83,2.62 11.33,9.17 11.33,16.47l5.53 0c0.01,-9.58 -5.9,-18.18 -14.85,-21.61z"/>
   <polygon class="fil21" points="1347.28,1119.04 1366.62,1119.04 1366.62,1113.52 1347.28,1113.52 "/>
   <polygon class="fil22" points="1342.74,1132.22 1346.28,1127.98 1362.86,1141.79 1359.32,1146.04 "/>
   <polygon class="fil23" points="1330.69,1154.97 1336.22,1154.97 1336.22,1135.63 1330.69,1135.63 "/>
   <polygon class="fil24" points="1213.96,1058.33 1236.06,1052.8 1237.4,1058.16 1215.3,1063.69 "/>
   <polygon class="fil25" points="1218.55,1030.1 1221.76,1025.6 1241.1,1039.42 1237.89,1043.91 "/>
   <polygon class="fil26" points="1242.22,1011.95 1247.58,1010.58 1253.23,1032.69 1247.88,1034.06 "/>
  </g>
 </g>
</svg>
